<svg xmlns="http://www.w3.org/2000/svg" xmlns:xlink="http://www.w3.org/1999/xlink" width="500" zoomAndPan="magnify" viewBox="0 0 375 374.999991" height="500" preserveAspectRatio="xMidYMid meet" version="1.0"><defs><g/><clipPath id="a8402c89b2"><path d="M 125.585938 91.160156 L 255.335938 91.160156 L 255.335938 220.910156 L 125.585938 220.910156 Z M 125.585938 91.160156 " clip-rule="nonzero"/></clipPath></defs><rect x="-37.5" width="450" fill="#ffffff" y="-37.499999" height="449.999989" fill-opacity="1"/><rect x="-37.5" width="450" fill="#ffffff" y="-37.499999" height="449.999989" fill-opacity="1"/><g clip-path="url(#a8402c89b2)"><path fill="#082b43" d="M 198.15625 221.015625 L 182.867188 221.015625 C 182.105469 221.015625 181.496094 220.484375 181.34375 219.796875 L 178.605469 207.324219 C 172.976562 206.027344 167.574219 203.824219 162.632812 200.703125 L 151.90625 207.625 C 151.296875 208.007812 150.535156 207.929688 150.003906 207.398438 L 139.203125 196.519531 C 138.667969 196.0625 138.59375 195.226562 138.972656 194.617188 L 145.820312 183.890625 C 142.777344 178.949219 140.496094 173.621094 139.203125 167.917969 L 126.800781 165.253906 C 126.039062 165.101562 125.585938 164.417969 125.585938 163.734375 L 125.585938 148.441406 C 125.585938 147.683594 126.039062 147.074219 126.800781 146.921875 L 139.203125 144.183594 C 140.496094 138.554688 142.777344 133.152344 145.820312 128.207031 L 138.972656 117.480469 C 138.59375 116.871094 138.667969 116.113281 139.203125 115.578125 L 150.003906 104.777344 C 150.535156 104.246094 151.296875 104.167969 151.90625 104.546875 L 162.632812 111.394531 C 167.574219 108.351562 172.976562 106.070312 178.605469 104.777344 L 181.34375 92.378906 C 181.496094 91.691406 182.105469 91.160156 182.867188 91.160156 L 198.15625 91.160156 C 198.917969 91.160156 199.527344 91.691406 199.679688 92.378906 L 202.339844 104.777344 C 208.046875 106.144531 213.449219 108.351562 218.390625 111.472656 L 229.117188 104.546875 C 229.726562 104.167969 230.488281 104.246094 231.019531 104.777344 L 241.824219 115.578125 C 242.355469 116.113281 242.429688 116.871094 242.050781 117.480469 L 235.128906 128.207031 C 238.246094 133.152344 240.453125 138.554688 241.824219 144.183594 L 254.222656 146.921875 C 254.90625 147.074219 255.441406 147.683594 255.441406 148.441406 L 255.441406 163.734375 C 255.441406 164.492188 254.90625 165.101562 254.222656 165.253906 L 241.824219 167.992188 C 240.453125 173.621094 238.246094 179.023438 235.128906 183.96875 L 242.050781 194.695312 C 242.429688 195.304688 242.355469 196.0625 241.824219 196.597656 L 231.019531 207.398438 C 230.488281 207.929688 229.726562 208.007812 229.117188 207.625 L 218.390625 200.78125 C 213.449219 203.824219 208.046875 206.105469 202.339844 207.398438 L 199.679688 219.796875 C 199.527344 220.484375 198.84375 221.015625 198.15625 221.015625 Z M 190.472656 193.25 C 170.011719 193.25 153.351562 176.589844 153.351562 156.050781 C 153.351562 135.585938 170.011719 118.925781 190.472656 118.925781 C 211.011719 118.925781 227.671875 135.585938 227.671875 156.050781 C 227.671875 176.589844 211.011719 193.25 190.472656 193.25 Z M 190.472656 193.25 " fill-opacity="1" fill-rule="evenodd"/></g><path fill="#082b43" d="M 169.171875 156.050781 L 177.3125 164.1875 C 179.214844 166.089844 177.847656 169.363281 175.105469 169.363281 C 174.347656 169.363281 173.585938 169.058594 172.976562 168.449219 L 162.785156 158.253906 C 161.566406 157.039062 161.566406 155.136719 162.785156 153.917969 L 172.976562 143.648438 C 173.738281 142.890625 174.804688 142.585938 175.867188 142.890625 C 178.148438 143.496094 178.988281 146.238281 177.3125 147.984375 Z M 211.773438 156.050781 L 203.710938 147.984375 C 202.949219 147.226562 202.570312 146.160156 202.875 145.09375 C 203.480469 142.890625 206.296875 141.976562 207.96875 143.648438 L 218.242188 153.917969 C 219.457031 155.136719 219.457031 157.039062 218.242188 158.253906 L 207.96875 168.449219 C 207.4375 169.058594 206.675781 169.363281 205.839844 169.363281 C 203.179688 169.363281 201.808594 166.089844 203.710938 164.1875 Z M 211.773438 156.050781 " fill-opacity="1" fill-rule="evenodd"/><path fill="#082b43" d="M 183.628906 170.960938 C 181.34375 170.960938 179.824219 168.449219 180.964844 166.394531 L 194.65625 142.660156 C 195.265625 141.75 196.179688 141.140625 197.320312 141.140625 C 199.601562 141.214844 201.199219 143.648438 199.984375 145.703125 L 186.289062 169.4375 C 185.757812 170.351562 184.691406 170.960938 183.628906 170.960938 Z M 183.628906 170.960938 " fill-opacity="1" fill-rule="evenodd"/><g fill="#082b43" fill-opacity="1"><g transform="translate(140.998619, 268.234523)"><g><path d="M 6.484375 -2.15625 L 7.5 -7.46875 L 9.03125 -7.46875 L 7.375 0 L 5.828125 0 L 4.609375 -5 L 3.390625 0 L 1.84375 0 L 0.1875 -7.46875 L 1.71875 -7.46875 L 2.71875 -2.171875 L 3.953125 -7.46875 L 5.265625 -7.46875 Z M 6.484375 -2.15625 "/></g></g></g><g fill="#082b43" fill-opacity="1"><g transform="translate(150.191245, 268.234523)"><g><path d="M 3.125 0.109375 C 2.3125 0.109375 1.648438 -0.140625 1.140625 -0.640625 C 0.628906 -1.140625 0.375 -1.804688 0.375 -2.640625 L 0.375 -2.78125 C 0.375 -3.34375 0.476562 -3.84375 0.6875 -4.28125 C 0.90625 -4.71875 1.210938 -5.054688 1.609375 -5.296875 C 2.003906 -5.535156 2.457031 -5.65625 2.96875 -5.65625 C 3.726562 -5.65625 4.320312 -5.414062 4.75 -4.9375 C 5.1875 -4.457031 5.40625 -3.78125 5.40625 -2.90625 L 5.40625 -2.296875 L 1.875 -2.296875 C 1.925781 -1.929688 2.070312 -1.640625 2.3125 -1.421875 C 2.550781 -1.203125 2.851562 -1.09375 3.21875 -1.09375 C 3.789062 -1.09375 4.238281 -1.300781 4.5625 -1.71875 L 5.296875 -0.90625 C 5.066406 -0.582031 4.757812 -0.332031 4.375 -0.15625 C 4 0.0195312 3.582031 0.109375 3.125 0.109375 Z M 2.953125 -4.453125 C 2.660156 -4.453125 2.421875 -4.351562 2.234375 -4.15625 C 2.054688 -3.957031 1.941406 -3.675781 1.890625 -3.3125 L 3.953125 -3.3125 L 3.953125 -3.421875 C 3.941406 -3.753906 3.851562 -4.007812 3.6875 -4.1875 C 3.519531 -4.363281 3.273438 -4.453125 2.953125 -4.453125 Z M 2.953125 -4.453125 "/></g></g></g><g fill="#082b43" fill-opacity="1"><g transform="translate(155.873122, 268.234523)"><g><path d="M 5.578125 -2.71875 C 5.578125 -1.832031 5.382812 -1.140625 5 -0.640625 C 4.625 -0.140625 4.097656 0.109375 3.421875 0.109375 C 2.816406 0.109375 2.332031 -0.125 1.96875 -0.59375 L 1.90625 0 L 0.5625 0 L 0.5625 -7.890625 L 2.046875 -7.890625 L 2.046875 -5.0625 C 2.390625 -5.457031 2.84375 -5.65625 3.40625 -5.65625 C 4.082031 -5.65625 4.613281 -5.40625 5 -4.90625 C 5.382812 -4.414062 5.578125 -3.71875 5.578125 -2.8125 Z M 4.09375 -2.828125 C 4.09375 -3.390625 4.003906 -3.800781 3.828125 -4.0625 C 3.648438 -4.320312 3.382812 -4.453125 3.03125 -4.453125 C 2.5625 -4.453125 2.234375 -4.257812 2.046875 -3.875 L 2.046875 -1.671875 C 2.234375 -1.285156 2.566406 -1.09375 3.046875 -1.09375 C 3.523438 -1.09375 3.835938 -1.328125 3.984375 -1.796875 C 4.054688 -2.023438 4.09375 -2.367188 4.09375 -2.828125 Z M 4.09375 -2.828125 "/></g></g></g><g fill="#082b43" fill-opacity="1"><g transform="translate(161.791102, 268.234523)"><g/></g></g><g fill="#082b43" fill-opacity="1"><g transform="translate(164.408766, 268.234523)"><g><path d="M 0.671875 0 L 0.671875 -7.46875 L 2.96875 -7.46875 C 3.625 -7.46875 4.210938 -7.320312 4.734375 -7.03125 C 5.253906 -6.738281 5.65625 -6.316406 5.9375 -5.765625 C 6.226562 -5.222656 6.375 -4.601562 6.375 -3.90625 L 6.375 -3.5625 C 6.375 -2.863281 6.234375 -2.242188 5.953125 -1.703125 C 5.671875 -1.171875 5.269531 -0.753906 4.75 -0.453125 C 4.226562 -0.148438 3.640625 0 2.984375 0 Z M 2.203125 -6.234375 L 2.203125 -1.234375 L 2.953125 -1.234375 C 3.554688 -1.234375 4.015625 -1.429688 4.328125 -1.828125 C 4.648438 -2.222656 4.816406 -2.785156 4.828125 -3.515625 L 4.828125 -3.90625 C 4.828125 -4.664062 4.664062 -5.242188 4.34375 -5.640625 C 4.03125 -6.035156 3.570312 -6.234375 2.96875 -6.234375 Z M 2.203125 -6.234375 "/></g></g></g><g fill="#082b43" fill-opacity="1"><g transform="translate(171.240362, 268.234523)"><g><path d="M 3.125 0.109375 C 2.3125 0.109375 1.648438 -0.140625 1.140625 -0.640625 C 0.628906 -1.140625 0.375 -1.804688 0.375 -2.640625 L 0.375 -2.78125 C 0.375 -3.34375 0.476562 -3.84375 0.6875 -4.28125 C 0.90625 -4.71875 1.210938 -5.054688 1.609375 -5.296875 C 2.003906 -5.535156 2.457031 -5.65625 2.96875 -5.65625 C 3.726562 -5.65625 4.320312 -5.414062 4.75 -4.9375 C 5.1875 -4.457031 5.40625 -3.78125 5.40625 -2.90625 L 5.40625 -2.296875 L 1.875 -2.296875 C 1.925781 -1.929688 2.070312 -1.640625 2.3125 -1.421875 C 2.550781 -1.203125 2.851562 -1.09375 3.21875 -1.09375 C 3.789062 -1.09375 4.238281 -1.300781 4.5625 -1.71875 L 5.296875 -0.90625 C 5.066406 -0.582031 4.757812 -0.332031 4.375 -0.15625 C 4 0.0195312 3.582031 0.109375 3.125 0.109375 Z M 2.953125 -4.453125 C 2.660156 -4.453125 2.421875 -4.351562 2.234375 -4.15625 C 2.054688 -3.957031 1.941406 -3.675781 1.890625 -3.3125 L 3.953125 -3.3125 L 3.953125 -3.421875 C 3.941406 -3.753906 3.851562 -4.007812 3.6875 -4.1875 C 3.519531 -4.363281 3.273438 -4.453125 2.953125 -4.453125 Z M 2.953125 -4.453125 "/></g></g></g><g fill="#082b43" fill-opacity="1"><g transform="translate(176.922239, 268.234523)"><g><path d="M 2.65625 -1.8125 L 3.6875 -5.5625 L 5.234375 -5.5625 L 3.359375 0 L 1.9375 0 L 0.0625 -5.5625 L 1.625 -5.5625 Z M 2.65625 -1.8125 "/></g></g></g><g fill="#082b43" fill-opacity="1"><g transform="translate(182.234563, 268.234523)"><g><path d="M 3.125 0.109375 C 2.3125 0.109375 1.648438 -0.140625 1.140625 -0.640625 C 0.628906 -1.140625 0.375 -1.804688 0.375 -2.640625 L 0.375 -2.78125 C 0.375 -3.34375 0.476562 -3.84375 0.6875 -4.28125 C 0.90625 -4.71875 1.210938 -5.054688 1.609375 -5.296875 C 2.003906 -5.535156 2.457031 -5.65625 2.96875 -5.65625 C 3.726562 -5.65625 4.320312 -5.414062 4.75 -4.9375 C 5.1875 -4.457031 5.40625 -3.78125 5.40625 -2.90625 L 5.40625 -2.296875 L 1.875 -2.296875 C 1.925781 -1.929688 2.070312 -1.640625 2.3125 -1.421875 C 2.550781 -1.203125 2.851562 -1.09375 3.21875 -1.09375 C 3.789062 -1.09375 4.238281 -1.300781 4.5625 -1.71875 L 5.296875 -0.90625 C 5.066406 -0.582031 4.757812 -0.332031 4.375 -0.15625 C 4 0.0195312 3.582031 0.109375 3.125 0.109375 Z M 2.953125 -4.453125 C 2.660156 -4.453125 2.421875 -4.351562 2.234375 -4.15625 C 2.054688 -3.957031 1.941406 -3.675781 1.890625 -3.3125 L 3.953125 -3.3125 L 3.953125 -3.421875 C 3.941406 -3.753906 3.851562 -4.007812 3.6875 -4.1875 C 3.519531 -4.363281 3.273438 -4.453125 2.953125 -4.453125 Z M 2.953125 -4.453125 "/></g></g></g><g fill="#082b43" fill-opacity="1"><g transform="translate(187.91644, 268.234523)"><g><path d="M 2.140625 0 L 0.640625 0 L 0.640625 -7.890625 L 2.140625 -7.890625 Z M 2.140625 0 "/></g></g></g><g fill="#082b43" fill-opacity="1"><g transform="translate(190.703488, 268.234523)"><g><path d="M 0.34375 -2.828125 C 0.34375 -3.378906 0.445312 -3.867188 0.65625 -4.296875 C 0.863281 -4.734375 1.164062 -5.066406 1.5625 -5.296875 C 1.96875 -5.535156 2.4375 -5.65625 2.96875 -5.65625 C 3.71875 -5.65625 4.328125 -5.425781 4.796875 -4.96875 C 5.273438 -4.507812 5.539062 -3.882812 5.59375 -3.09375 L 5.609375 -2.71875 C 5.609375 -1.863281 5.367188 -1.175781 4.890625 -0.65625 C 4.410156 -0.144531 3.769531 0.109375 2.96875 0.109375 C 2.164062 0.109375 1.523438 -0.144531 1.046875 -0.65625 C 0.578125 -1.175781 0.34375 -1.878906 0.34375 -2.765625 Z M 1.828125 -2.71875 C 1.828125 -2.195312 1.925781 -1.796875 2.125 -1.515625 C 2.320312 -1.234375 2.601562 -1.09375 2.96875 -1.09375 C 3.332031 -1.09375 3.613281 -1.226562 3.8125 -1.5 C 4.019531 -1.78125 4.125 -2.222656 4.125 -2.828125 C 4.125 -3.347656 4.019531 -3.75 3.8125 -4.03125 C 3.613281 -4.3125 3.332031 -4.453125 2.96875 -4.453125 C 2.601562 -4.453125 2.320312 -4.3125 2.125 -4.03125 C 1.925781 -3.75 1.828125 -3.3125 1.828125 -2.71875 Z M 1.828125 -2.71875 "/></g></g></g><g fill="#082b43" fill-opacity="1"><g transform="translate(196.647125, 268.234523)"><g><path d="M 5.578125 -2.71875 C 5.578125 -1.863281 5.378906 -1.175781 4.984375 -0.65625 C 4.597656 -0.144531 4.078125 0.109375 3.421875 0.109375 C 2.859375 0.109375 2.398438 -0.0859375 2.046875 -0.484375 L 2.046875 2.140625 L 0.5625 2.140625 L 0.5625 -5.5625 L 1.953125 -5.5625 L 2 -5.015625 C 2.351562 -5.441406 2.820312 -5.65625 3.40625 -5.65625 C 4.09375 -5.65625 4.625 -5.398438 5 -4.890625 C 5.382812 -4.390625 5.578125 -3.691406 5.578125 -2.796875 Z M 4.09375 -2.828125 C 4.09375 -3.347656 4 -3.75 3.8125 -4.03125 C 3.625 -4.3125 3.359375 -4.453125 3.015625 -4.453125 C 2.546875 -4.453125 2.222656 -4.273438 2.046875 -3.921875 L 2.046875 -1.640625 C 2.234375 -1.273438 2.5625 -1.09375 3.03125 -1.09375 C 3.738281 -1.09375 4.09375 -1.671875 4.09375 -2.828125 Z M 4.09375 -2.828125 "/></g></g></g><g fill="#082b43" fill-opacity="1"><g transform="translate(202.565105, 268.234523)"><g><path d="M 3.125 0.109375 C 2.3125 0.109375 1.648438 -0.140625 1.140625 -0.640625 C 0.628906 -1.140625 0.375 -1.804688 0.375 -2.640625 L 0.375 -2.78125 C 0.375 -3.34375 0.476562 -3.84375 0.6875 -4.28125 C 0.90625 -4.71875 1.210938 -5.054688 1.609375 -5.296875 C 2.003906 -5.535156 2.457031 -5.65625 2.96875 -5.65625 C 3.726562 -5.65625 4.320312 -5.414062 4.75 -4.9375 C 5.1875 -4.457031 5.40625 -3.78125 5.40625 -2.90625 L 5.40625 -2.296875 L 1.875 -2.296875 C 1.925781 -1.929688 2.070312 -1.640625 2.3125 -1.421875 C 2.550781 -1.203125 2.851562 -1.09375 3.21875 -1.09375 C 3.789062 -1.09375 4.238281 -1.300781 4.5625 -1.71875 L 5.296875 -0.90625 C 5.066406 -0.582031 4.757812 -0.332031 4.375 -0.15625 C 4 0.0195312 3.582031 0.109375 3.125 0.109375 Z M 2.953125 -4.453125 C 2.660156 -4.453125 2.421875 -4.351562 2.234375 -4.15625 C 2.054688 -3.957031 1.941406 -3.675781 1.890625 -3.3125 L 3.953125 -3.3125 L 3.953125 -3.421875 C 3.941406 -3.753906 3.851562 -4.007812 3.6875 -4.1875 C 3.519531 -4.363281 3.273438 -4.453125 2.953125 -4.453125 Z M 2.953125 -4.453125 "/></g></g></g><g fill="#082b43" fill-opacity="1"><g transform="translate(208.246982, 268.234523)"><g><path d="M 3.6875 -4.171875 C 3.488281 -4.191406 3.3125 -4.203125 3.15625 -4.203125 C 2.59375 -4.203125 2.222656 -4.015625 2.046875 -3.640625 L 2.046875 0 L 0.5625 0 L 0.5625 -5.5625 L 1.96875 -5.5625 L 2.015625 -4.890625 C 2.304688 -5.398438 2.71875 -5.65625 3.25 -5.65625 C 3.414062 -5.65625 3.570312 -5.632812 3.71875 -5.59375 Z M 3.6875 -4.171875 "/></g></g></g><g fill="#082b43" fill-opacity="1"><g transform="translate(212.081096, 268.234523)"><g/></g></g><g fill="#082b43" fill-opacity="1"><g transform="translate(214.69876, 268.234523)"><g><path d="M 0.359375 -2.015625 C 0.359375 -2.359375 0.453125 -2.675781 0.640625 -2.96875 C 0.835938 -3.269531 1.195312 -3.597656 1.71875 -3.953125 C 1.5 -4.253906 1.320312 -4.535156 1.1875 -4.796875 C 1.0625 -5.054688 1 -5.328125 1 -5.609375 C 1 -6.191406 1.179688 -6.664062 1.546875 -7.03125 C 1.921875 -7.394531 2.421875 -7.578125 3.046875 -7.578125 C 3.597656 -7.578125 4.050781 -7.410156 4.40625 -7.078125 C 4.769531 -6.742188 4.953125 -6.332031 4.953125 -5.84375 C 4.953125 -5.238281 4.648438 -4.710938 4.046875 -4.265625 L 3.46875 -3.84375 L 4.765625 -2.34375 C 4.960938 -2.738281 5.0625 -3.175781 5.0625 -3.65625 L 6.328125 -3.65625 C 6.328125 -2.6875 6.101562 -1.898438 5.65625 -1.296875 L 6.78125 0 L 5.09375 0 L 4.703125 -0.4375 C 4.148438 -0.0703125 3.519531 0.109375 2.8125 0.109375 C 2.070312 0.109375 1.476562 -0.0820312 1.03125 -0.46875 C 0.582031 -0.863281 0.359375 -1.378906 0.359375 -2.015625 Z M 2.875 -1.09375 C 3.238281 -1.09375 3.578125 -1.191406 3.890625 -1.390625 L 2.421875 -3.09375 L 2.3125 -3.015625 C 2.007812 -2.753906 1.859375 -2.445312 1.859375 -2.09375 C 1.859375 -1.789062 1.953125 -1.546875 2.140625 -1.359375 C 2.328125 -1.179688 2.570312 -1.09375 2.875 -1.09375 Z M 2.34375 -5.625 C 2.34375 -5.375 2.488281 -5.050781 2.78125 -4.65625 L 3.1875 -4.921875 C 3.382812 -5.054688 3.519531 -5.179688 3.59375 -5.296875 C 3.675781 -5.421875 3.71875 -5.566406 3.71875 -5.734375 C 3.71875 -5.910156 3.65625 -6.0625 3.53125 -6.1875 C 3.40625 -6.3125 3.242188 -6.375 3.046875 -6.375 C 2.828125 -6.375 2.65625 -6.304688 2.53125 -6.171875 C 2.40625 -6.035156 2.34375 -5.851562 2.34375 -5.625 Z M 2.34375 -5.625 "/></g></g></g><g fill="#082b43" fill-opacity="1"><g transform="translate(221.597075, 268.234523)"><g/></g></g><g fill="#082b43" fill-opacity="1"><g transform="translate(224.214739, 268.234523)"><g><path d="M 0.671875 0 L 0.671875 -7.46875 L 3.28125 -7.46875 C 4.1875 -7.46875 4.875 -7.296875 5.34375 -6.953125 C 5.8125 -6.609375 6.046875 -6.097656 6.046875 -5.421875 C 6.046875 -5.054688 5.953125 -4.734375 5.765625 -4.453125 C 5.578125 -4.179688 5.316406 -3.976562 4.984375 -3.84375 C 5.367188 -3.75 5.671875 -3.554688 5.890625 -3.265625 C 6.109375 -2.972656 6.21875 -2.617188 6.21875 -2.203125 C 6.21875 -1.484375 5.988281 -0.9375 5.53125 -0.5625 C 5.070312 -0.195312 4.421875 -0.0078125 3.578125 0 Z M 2.203125 -3.25 L 2.203125 -1.234375 L 3.53125 -1.234375 C 3.894531 -1.234375 4.175781 -1.316406 4.375 -1.484375 C 4.582031 -1.660156 4.6875 -1.90625 4.6875 -2.21875 C 4.6875 -2.894531 4.332031 -3.238281 3.625 -3.25 Z M 2.203125 -4.34375 L 3.34375 -4.34375 C 4.125 -4.351562 4.515625 -4.660156 4.515625 -5.265625 C 4.515625 -5.609375 4.414062 -5.851562 4.21875 -6 C 4.019531 -6.15625 3.707031 -6.234375 3.28125 -6.234375 L 2.203125 -6.234375 Z M 2.203125 -4.34375 "/></g></g></g><g fill="#082b43" fill-opacity="1"><g transform="translate(230.923151, 268.234523)"><g><path d="M 2.3125 0 L 0.765625 0 L 0.765625 -7.46875 L 2.3125 -7.46875 Z M 2.3125 0 "/></g></g></g><g fill="#082b43" fill-opacity="1"><g transform="translate(99.00068, 250.7787)"><g><path d="M 8.265625 -23.03125 L 14.171875 -6.328125 L 20.0625 -23.03125 L 26.296875 -23.03125 L 26.296875 0 L 21.53125 0 L 21.53125 -6.296875 L 22.015625 -17.171875 L 15.796875 0 L 12.53125 0 L 6.328125 -17.15625 L 6.796875 -6.296875 L 6.796875 0 L 2.0625 0 L 2.0625 -23.03125 Z M 8.265625 -23.03125 "/></g></g></g><g fill="#082b43" fill-opacity="1"><g transform="translate(126.736104, 250.7787)"><g><path d="M 6.578125 0 L 2 0 L 2 -17.125 L 6.578125 -17.125 Z M 1.71875 -21.546875 C 1.71875 -22.234375 1.945312 -22.796875 2.40625 -23.234375 C 2.863281 -23.679688 3.488281 -23.90625 4.28125 -23.90625 C 5.0625 -23.90625 5.679688 -23.679688 6.140625 -23.234375 C 6.609375 -22.796875 6.84375 -22.234375 6.84375 -21.546875 C 6.84375 -20.847656 6.609375 -20.273438 6.140625 -19.828125 C 5.671875 -19.390625 5.050781 -19.171875 4.28125 -19.171875 C 3.519531 -19.171875 2.898438 -19.390625 2.421875 -19.828125 C 1.953125 -20.273438 1.71875 -20.847656 1.71875 -21.546875 Z M 1.71875 -21.546875 "/></g></g></g><g fill="#082b43" fill-opacity="1"><g transform="translate(134.678893, 250.7787)"><g><path d="M 5.96875 -17.125 L 6.109375 -15.140625 C 7.328125 -16.671875 8.96875 -17.4375 11.03125 -17.4375 C 12.84375 -17.4375 14.191406 -16.898438 15.078125 -15.828125 C 15.960938 -14.765625 16.414062 -13.175781 16.4375 -11.0625 L 16.4375 0 L 11.875 0 L 11.875 -10.953125 C 11.875 -11.921875 11.660156 -12.625 11.234375 -13.0625 C 10.816406 -13.5 10.113281 -13.71875 9.125 -13.71875 C 7.84375 -13.71875 6.878906 -13.171875 6.234375 -12.078125 L 6.234375 0 L 1.65625 0 L 1.65625 -17.125 Z M 5.96875 -17.125 "/></g></g></g><g fill="#082b43" fill-opacity="1"><g transform="translate(152.177841, 250.7787)"><g><path d="M 11.671875 0 C 11.460938 -0.40625 11.3125 -0.914062 11.21875 -1.53125 C 10.113281 -0.300781 8.675781 0.3125 6.90625 0.3125 C 5.226562 0.3125 3.835938 -0.171875 2.734375 -1.140625 C 1.628906 -2.109375 1.078125 -3.332031 1.078125 -4.8125 C 1.078125 -6.625 1.75 -8.015625 3.09375 -8.984375 C 4.4375 -9.953125 6.378906 -10.441406 8.921875 -10.453125 L 11.03125 -10.453125 L 11.03125 -11.4375 C 11.03125 -12.226562 10.828125 -12.859375 10.421875 -13.328125 C 10.015625 -13.804688 9.375 -14.046875 8.5 -14.046875 C 7.726562 -14.046875 7.125 -13.859375 6.6875 -13.484375 C 6.25 -13.117188 6.03125 -12.617188 6.03125 -11.984375 L 1.453125 -11.984375 C 1.453125 -12.972656 1.757812 -13.890625 2.375 -14.734375 C 2.988281 -15.578125 3.851562 -16.238281 4.96875 -16.71875 C 6.082031 -17.195312 7.335938 -17.4375 8.734375 -17.4375 C 10.847656 -17.4375 12.523438 -16.90625 13.765625 -15.84375 C 15.003906 -14.78125 15.625 -13.289062 15.625 -11.375 L 15.625 -3.953125 C 15.632812 -2.328125 15.859375 -1.097656 16.296875 -0.265625 L 16.296875 0 Z M 7.890625 -3.1875 C 8.566406 -3.1875 9.191406 -3.332031 9.765625 -3.625 C 10.335938 -3.925781 10.757812 -4.332031 11.03125 -4.84375 L 11.03125 -7.78125 L 9.3125 -7.78125 C 7.03125 -7.78125 5.816406 -6.988281 5.671875 -5.40625 L 5.65625 -5.140625 C 5.65625 -4.566406 5.851562 -4.097656 6.25 -3.734375 C 6.644531 -3.367188 7.191406 -3.1875 7.890625 -3.1875 Z M 7.890625 -3.1875 "/></g></g></g><g fill="#082b43" fill-opacity="1"><g transform="translate(168.901532, 250.7787)"><g/></g></g><g fill="#082b43" fill-opacity="1"><g transform="translate(176.322206, 250.7787)"><g><path d="M 20.796875 0 L 16.046875 0 L 6.796875 -15.15625 L 6.796875 0 L 2.0625 0 L 2.0625 -23.03125 L 6.796875 -23.03125 L 16.0625 -7.84375 L 16.0625 -23.03125 L 20.796875 -23.03125 Z M 20.796875 0 "/></g></g></g><g fill="#082b43" fill-opacity="1"><g transform="translate(198.551764, 250.7787)"><g><path d="M 11.671875 0 C 11.460938 -0.40625 11.3125 -0.914062 11.21875 -1.53125 C 10.113281 -0.300781 8.675781 0.3125 6.90625 0.3125 C 5.226562 0.3125 3.835938 -0.171875 2.734375 -1.140625 C 1.628906 -2.109375 1.078125 -3.332031 1.078125 -4.8125 C 1.078125 -6.625 1.75 -8.015625 3.09375 -8.984375 C 4.4375 -9.953125 6.378906 -10.441406 8.921875 -10.453125 L 11.03125 -10.453125 L 11.03125 -11.4375 C 11.03125 -12.226562 10.828125 -12.859375 10.421875 -13.328125 C 10.015625 -13.804688 9.375 -14.046875 8.5 -14.046875 C 7.726562 -14.046875 7.125 -13.859375 6.6875 -13.484375 C 6.25 -13.117188 6.03125 -12.617188 6.03125 -11.984375 L 1.453125 -11.984375 C 1.453125 -12.972656 1.757812 -13.890625 2.375 -14.734375 C 2.988281 -15.578125 3.851562 -16.238281 4.96875 -16.71875 C 6.082031 -17.195312 7.335938 -17.4375 8.734375 -17.4375 C 10.847656 -17.4375 12.523438 -16.90625 13.765625 -15.84375 C 15.003906 -14.78125 15.625 -13.289062 15.625 -11.375 L 15.625 -3.953125 C 15.632812 -2.328125 15.859375 -1.097656 16.296875 -0.265625 L 16.296875 0 Z M 7.890625 -3.1875 C 8.566406 -3.1875 9.191406 -3.332031 9.765625 -3.625 C 10.335938 -3.925781 10.757812 -4.332031 11.03125 -4.84375 L 11.03125 -7.78125 L 9.3125 -7.78125 C 7.03125 -7.78125 5.816406 -6.988281 5.671875 -5.40625 L 5.65625 -5.140625 C 5.65625 -4.566406 5.851562 -4.097656 6.25 -3.734375 C 6.644531 -3.367188 7.191406 -3.1875 7.890625 -3.1875 Z M 7.890625 -3.1875 "/></g></g></g><g fill="#082b43" fill-opacity="1"><g transform="translate(215.275449, 250.7787)"><g><path d="M 11.03125 -4.734375 C 11.03125 -5.285156 10.753906 -5.722656 10.203125 -6.046875 C 9.648438 -6.367188 8.757812 -6.660156 7.53125 -6.921875 C 3.457031 -7.773438 1.421875 -9.503906 1.421875 -12.109375 C 1.421875 -13.628906 2.050781 -14.894531 3.3125 -15.90625 C 4.570312 -16.925781 6.222656 -17.4375 8.265625 -17.4375 C 10.429688 -17.4375 12.164062 -16.925781 13.46875 -15.90625 C 14.769531 -14.882812 15.421875 -13.554688 15.421875 -11.921875 L 10.859375 -11.921875 C 10.859375 -12.566406 10.644531 -13.101562 10.21875 -13.53125 C 9.800781 -13.957031 9.144531 -14.171875 8.25 -14.171875 C 7.476562 -14.171875 6.878906 -14 6.453125 -13.65625 C 6.035156 -13.3125 5.828125 -12.867188 5.828125 -12.328125 C 5.828125 -11.816406 6.066406 -11.40625 6.546875 -11.09375 C 7.023438 -10.789062 7.832031 -10.523438 8.96875 -10.296875 C 10.113281 -10.066406 11.078125 -9.8125 11.859375 -9.53125 C 14.265625 -8.644531 15.46875 -7.109375 15.46875 -4.921875 C 15.46875 -3.359375 14.796875 -2.09375 13.453125 -1.125 C 12.117188 -0.164062 10.394531 0.3125 8.28125 0.3125 C 6.84375 0.3125 5.566406 0.0546875 4.453125 -0.453125 C 3.335938 -0.960938 2.460938 -1.660156 1.828125 -2.546875 C 1.203125 -3.441406 0.890625 -4.40625 0.890625 -5.4375 L 5.21875 -5.4375 C 5.257812 -4.625 5.5625 -4 6.125 -3.5625 C 6.6875 -3.132812 7.4375 -2.921875 8.375 -2.921875 C 9.25 -2.921875 9.910156 -3.085938 10.359375 -3.421875 C 10.804688 -3.753906 11.03125 -4.191406 11.03125 -4.734375 Z M 11.03125 -4.734375 "/></g></g></g><g fill="#082b43" fill-opacity="1"><g transform="translate(231.287175, 250.7787)"><g><path d="M 11.03125 -4.734375 C 11.03125 -5.285156 10.753906 -5.722656 10.203125 -6.046875 C 9.648438 -6.367188 8.757812 -6.660156 7.53125 -6.921875 C 3.457031 -7.773438 1.421875 -9.503906 1.421875 -12.109375 C 1.421875 -13.628906 2.050781 -14.894531 3.3125 -15.90625 C 4.570312 -16.925781 6.222656 -17.4375 8.265625 -17.4375 C 10.429688 -17.4375 12.164062 -16.925781 13.46875 -15.90625 C 14.769531 -14.882812 15.421875 -13.554688 15.421875 -11.921875 L 10.859375 -11.921875 C 10.859375 -12.566406 10.644531 -13.101562 10.21875 -13.53125 C 9.800781 -13.957031 9.144531 -14.171875 8.25 -14.171875 C 7.476562 -14.171875 6.878906 -14 6.453125 -13.65625 C 6.035156 -13.3125 5.828125 -12.867188 5.828125 -12.328125 C 5.828125 -11.816406 6.066406 -11.40625 6.546875 -11.09375 C 7.023438 -10.789062 7.832031 -10.523438 8.96875 -10.296875 C 10.113281 -10.066406 11.078125 -9.8125 11.859375 -9.53125 C 14.265625 -8.644531 15.46875 -7.109375 15.46875 -4.921875 C 15.46875 -3.359375 14.796875 -2.09375 13.453125 -1.125 C 12.117188 -0.164062 10.394531 0.3125 8.28125 0.3125 C 6.84375 0.3125 5.566406 0.0546875 4.453125 -0.453125 C 3.335938 -0.960938 2.460938 -1.660156 1.828125 -2.546875 C 1.203125 -3.441406 0.890625 -4.40625 0.890625 -5.4375 L 5.21875 -5.4375 C 5.257812 -4.625 5.5625 -4 6.125 -3.5625 C 6.6875 -3.132812 7.4375 -2.921875 8.375 -2.921875 C 9.25 -2.921875 9.910156 -3.085938 10.359375 -3.421875 C 10.804688 -3.753906 11.03125 -4.191406 11.03125 -4.734375 Z M 11.03125 -4.734375 "/></g></g></g><g fill="#082b43" fill-opacity="1"><g transform="translate(247.2989, 250.7787)"><g><path d="M 9.640625 0.3125 C 7.128906 0.3125 5.082031 -0.453125 3.5 -1.984375 C 1.925781 -3.523438 1.140625 -5.582031 1.140625 -8.15625 L 1.140625 -8.59375 C 1.140625 -10.3125 1.472656 -11.847656 2.140625 -13.203125 C 2.804688 -14.554688 3.742188 -15.597656 4.953125 -16.328125 C 6.171875 -17.066406 7.5625 -17.4375 9.125 -17.4375 C 11.46875 -17.4375 13.3125 -16.695312 14.65625 -15.21875 C 16 -13.738281 16.671875 -11.644531 16.671875 -8.9375 L 16.671875 -7.078125 L 5.78125 -7.078125 C 5.925781 -5.953125 6.367188 -5.050781 7.109375 -4.375 C 7.859375 -3.707031 8.800781 -3.375 9.9375 -3.375 C 11.695312 -3.375 13.070312 -4.007812 14.0625 -5.28125 L 16.3125 -2.765625 C 15.625 -1.796875 14.691406 -1.039062 13.515625 -0.5 C 12.347656 0.0390625 11.054688 0.3125 9.640625 0.3125 Z M 9.109375 -13.734375 C 8.203125 -13.734375 7.46875 -13.425781 6.90625 -12.8125 C 6.34375 -12.207031 5.984375 -11.332031 5.828125 -10.1875 L 12.1875 -10.1875 L 12.1875 -10.546875 C 12.164062 -11.566406 11.890625 -12.351562 11.359375 -12.90625 C 10.828125 -13.457031 10.078125 -13.734375 9.109375 -13.734375 Z M 9.109375 -13.734375 "/></g></g></g><g fill="#082b43" fill-opacity="1"><g transform="translate(264.164984, 250.7787)"><g><path d="M 11.375 -12.828125 C 10.75 -12.910156 10.203125 -12.953125 9.734375 -12.953125 C 8.003906 -12.953125 6.867188 -12.367188 6.328125 -11.203125 L 6.328125 0 L 1.75 0 L 1.75 -17.125 L 6.078125 -17.125 L 6.203125 -15.078125 C 7.117188 -16.648438 8.390625 -17.4375 10.015625 -17.4375 C 10.523438 -17.4375 11 -17.367188 11.4375 -17.234375 Z M 11.375 -12.828125 "/></g></g></g></svg>