<svg xmlns="http://www.w3.org/2000/svg" xmlns:xlink="http://www.w3.org/1999/xlink" width="500" zoomAndPan="magnify" viewBox="0 0 375 374.999991" height="500" preserveAspectRatio="xMidYMid meet" version="1.0"><defs><g/><clipPath id="5137e6e6ae"><path d="M 119.65625 84.492188 L 255.40625 84.492188 L 255.40625 187.242188 L 119.65625 187.242188 Z M 119.65625 84.492188 " clip-rule="nonzero"/></clipPath></defs><rect x="-37.5" width="450" fill="#ffffff" y="-37.499999" height="449.999989" fill-opacity="1"/><rect x="-37.5" width="450" fill="#ffffff" y="-37.499999" height="449.999989" fill-opacity="1"/><g clip-path="url(#5137e6e6ae)"><path fill="#000000" d="M 119.664062 179.574219 L 119.664062 183.421875 C 119.664062 185.539062 121.390625 187.261719 123.519531 187.261719 L 243.640625 187.261719 C 245.761719 187.261719 247.492188 185.539062 247.492188 183.421875 L 247.492188 179.574219 Z M 255.1875 104.144531 L 250.859375 102.617188 C 250.28125 102.414062 249.824219 101.957031 249.625 101.375 C 249.410156 100.753906 249.152344 100.121094 248.828125 99.445312 C 248.566406 98.898438 248.566406 98.265625 248.828125 97.71875 L 250.796875 93.589844 C 249.53125 91.910156 248.042969 90.429688 246.359375 89.164062 L 242.21875 91.136719 C 241.664062 91.398438 241.019531 91.394531 240.46875 91.125 C 239.867188 90.835938 239.234375 90.570312 238.53125 90.324219 C 237.953125 90.121094 237.507812 89.675781 237.300781 89.105469 L 235.769531 84.789062 C 233.671875 84.503906 231.589844 84.503906 229.488281 84.789062 L 227.960938 89.105469 C 227.757812 89.675781 227.304688 90.121094 226.734375 90.324219 C 226.027344 90.570312 225.394531 90.835938 224.792969 91.125 C 224.242188 91.394531 223.597656 91.398438 223.046875 91.136719 L 218.90625 89.164062 C 217.226562 90.429688 215.738281 91.917969 214.464844 93.589844 L 216.375 97.578125 L 216.441406 97.71875 C 216.449219 97.730469 216.453125 97.742188 216.457031 97.753906 C 216.707031 98.292969 216.695312 98.921875 216.433594 99.460938 C 216.140625 100.058594 215.875 100.691406 215.628906 101.394531 C 215.425781 101.96875 214.980469 102.417969 214.40625 102.617188 L 210.082031 104.144531 C 209.933594 105.199219 209.859375 106.246094 209.859375 107.273438 C 209.859375 108.308594 209.933594 109.351562 210.074219 110.402344 L 214.40625 111.933594 C 214.980469 112.132812 215.425781 112.582031 215.628906 113.152344 C 215.875 113.859375 216.140625 114.492188 216.433594 115.089844 C 216.703125 115.636719 216.707031 116.28125 216.441406 116.832031 L 214.464844 120.960938 C 215.734375 122.640625 217.222656 124.121094 218.90625 125.386719 L 223.046875 123.421875 C 223.59375 123.160156 224.226562 123.160156 224.773438 123.421875 C 225.453125 123.746094 226.09375 124.003906 226.714844 124.21875 C 227.296875 124.414062 227.753906 124.867188 227.960938 125.445312 L 229.488281 129.761719 C 230.527344 129.90625 231.578125 129.972656 232.628906 129.972656 C 233.683594 129.972656 234.734375 129.90625 235.769531 129.761719 L 237.300781 125.445312 C 237.507812 124.867188 237.964844 124.414062 238.546875 124.21875 C 239.1875 124 239.816406 123.742188 240.46875 123.421875 C 241.019531 123.152344 241.664062 123.148438 242.21875 123.414062 L 246.363281 125.386719 C 248.042969 124.121094 249.53125 122.640625 250.796875 120.964844 L 248.820312 116.832031 C 248.554688 116.28125 248.554688 115.636719 248.828125 115.089844 C 249.148438 114.4375 249.410156 113.8125 249.625 113.175781 C 249.824219 112.589844 250.28125 112.136719 250.859375 111.933594 L 255.1875 110.402344 C 255.328125 109.375 255.398438 108.332031 255.398438 107.273438 C 255.398438 106.226562 255.328125 105.175781 255.1875 104.144531 Z M 232.628906 117.203125 C 227.148438 117.203125 222.683594 112.746094 222.683594 107.273438 C 222.683594 101.804688 227.148438 97.355469 232.628906 97.355469 C 238.121094 97.355469 242.585938 101.804688 242.585938 107.273438 C 242.585938 112.746094 238.121094 117.203125 232.628906 117.203125 Z M 230.621094 134.332031 L 230.621094 166.820312 L 138.65625 166.820312 L 138.65625 109.277344 L 205.921875 109.277344 C 205.871094 108.609375 205.84375 107.9375 205.84375 107.273438 C 205.84375 106.613281 205.871094 105.945312 205.921875 105.273438 C 205.996094 104.28125 206.125 103.285156 206.308594 102.289062 C 206.4375 101.582031 206.933594 101.003906 207.617188 100.761719 L 208.253906 100.535156 L 131.582031 100.535156 C 130.648438 100.535156 129.890625 101.292969 129.890625 102.230469 L 129.890625 175.570312 L 239.398438 175.570312 L 239.398438 134.332031 Z M 150.996094 128.445312 L 147.605469 124.871094 L 150.996094 121.292969 C 151.757812 120.488281 151.722656 119.21875 150.914062 118.460938 C 150.109375 117.703125 148.835938 117.738281 148.074219 118.542969 L 143.378906 123.496094 C 142.648438 124.269531 142.648438 125.476562 143.378906 126.25 L 148.078125 131.199219 C 148.46875 131.613281 149.003906 131.824219 149.535156 131.824219 C 150.03125 131.824219 150.527344 131.644531 150.917969 131.273438 C 151.722656 130.515625 151.757812 129.25 150.996094 128.445312 Z M 175.464844 123.496094 L 170.769531 118.542969 C 170.007812 117.738281 168.738281 117.703125 167.933594 118.460938 C 167.125 119.21875 167.085938 120.488281 167.847656 121.292969 L 171.238281 124.871094 L 167.847656 128.445312 C 167.085938 129.25 167.125 130.515625 167.929688 131.273438 C 168.316406 131.644531 168.8125 131.824219 169.308594 131.824219 C 169.839844 131.824219 170.375 131.613281 170.769531 131.199219 L 175.464844 126.25 C 176.195312 125.476562 176.195312 124.269531 175.464844 123.496094 Z M 165.90625 113.675781 C 164.945312 113.121094 163.714844 113.449219 163.160156 114.410156 L 152.203125 133.328125 C 151.648438 134.285156 151.980469 135.511719 152.941406 136.066406 C 153.257812 136.246094 153.601562 136.332031 153.941406 136.332031 C 154.636719 136.332031 155.3125 135.976562 155.683594 135.332031 L 166.640625 116.410156 C 167.195312 115.453125 166.867188 114.226562 165.90625 113.675781 Z M 177.167969 144.132812 L 152.691406 144.132812 C 151.582031 144.132812 150.683594 145.03125 150.683594 146.140625 C 150.683594 147.242188 151.582031 148.140625 152.691406 148.140625 L 177.167969 148.140625 C 178.277344 148.140625 179.179688 147.242188 179.179688 146.140625 C 179.179688 145.03125 178.277344 144.132812 177.167969 144.132812 Z M 145.125 144.132812 L 144.839844 144.132812 C 143.730469 144.132812 142.832031 145.03125 142.832031 146.140625 C 142.832031 147.242188 143.730469 148.140625 144.839844 148.140625 L 145.125 148.140625 C 146.234375 148.140625 147.136719 147.242188 147.136719 146.140625 C 147.136719 145.03125 146.234375 144.132812 145.125 144.132812 Z M 177.167969 151.34375 L 152.691406 151.34375 C 151.582031 151.34375 150.683594 152.242188 150.683594 153.347656 C 150.683594 154.453125 151.582031 155.351562 152.691406 155.351562 L 177.167969 155.351562 C 178.277344 155.351562 179.179688 154.453125 179.179688 153.347656 C 179.179688 152.242188 178.277344 151.34375 177.167969 151.34375 Z M 145.125 151.34375 L 144.839844 151.34375 C 143.730469 151.34375 142.832031 152.242188 142.832031 153.347656 C 142.832031 154.453125 143.730469 155.351562 144.839844 155.351562 L 145.125 155.351562 C 146.234375 155.351562 147.136719 154.453125 147.136719 153.347656 C 147.136719 152.242188 146.234375 151.34375 145.125 151.34375 Z M 177.167969 158.546875 L 152.691406 158.546875 C 151.582031 158.546875 150.683594 159.445312 150.683594 160.550781 C 150.683594 161.65625 151.582031 162.550781 152.691406 162.550781 L 177.167969 162.550781 C 178.277344 162.550781 179.179688 161.65625 179.179688 160.550781 C 179.179688 159.445312 178.277344 158.546875 177.167969 158.546875 Z M 145.125 158.546875 L 144.839844 158.546875 C 143.730469 158.546875 142.832031 159.445312 142.832031 160.550781 C 142.832031 161.65625 143.730469 162.550781 144.839844 162.550781 L 145.125 162.550781 C 146.234375 162.550781 147.136719 161.65625 147.136719 160.550781 C 147.136719 159.445312 146.234375 158.546875 145.125 158.546875 Z M 226.035156 158.546875 L 224.925781 158.546875 L 224.925781 152.601562 C 224.925781 151.496094 224.027344 150.597656 222.917969 150.597656 C 221.808594 150.597656 220.90625 151.496094 220.90625 152.601562 L 220.90625 158.546875 L 219.867188 158.546875 L 219.867188 146.179688 C 219.867188 145.070312 218.96875 144.175781 217.859375 144.175781 C 216.746094 144.175781 215.851562 145.070312 215.851562 146.179688 L 215.851562 158.546875 L 214.796875 158.546875 L 214.796875 152.1875 C 214.796875 151.082031 213.898438 150.183594 212.789062 150.183594 C 211.679688 150.183594 210.78125 151.082031 210.78125 152.1875 L 210.78125 158.546875 L 209.742188 158.546875 L 209.742188 142.21875 C 209.742188 141.117188 208.839844 140.21875 207.730469 140.21875 C 206.621094 140.21875 205.722656 141.117188 205.722656 142.21875 L 205.722656 158.546875 L 204.679688 158.546875 L 204.679688 148.109375 C 204.679688 147.003906 203.78125 146.105469 202.667969 146.105469 C 201.5625 146.105469 200.660156 147.003906 200.660156 148.109375 L 200.660156 158.546875 L 199.613281 158.546875 L 199.613281 153.753906 C 199.613281 152.648438 198.710938 151.75 197.601562 151.75 C 196.492188 151.75 195.59375 152.648438 195.59375 153.753906 L 195.59375 158.546875 L 194.277344 158.546875 L 194.277344 134.25 C 194.277344 133.140625 193.375 132.242188 192.265625 132.242188 C 191.15625 132.242188 190.257812 133.140625 190.257812 134.25 L 190.257812 160.550781 C 190.257812 161.65625 191.15625 162.550781 192.265625 162.550781 L 226.035156 162.550781 C 227.144531 162.550781 228.042969 161.65625 228.042969 160.550781 C 228.042969 159.445312 227.144531 158.546875 226.035156 158.546875 Z M 226.035156 158.546875 " fill-opacity="1" fill-rule="nonzero"/></g><g fill="#000000" fill-opacity="1"><g transform="translate(101.788013, 224.557836)"><g><path d="M 2.34375 -25.015625 L 5.78125 -25.015625 L 10.1875 -4.71875 L 14.640625 -25.015625 L 18.046875 -25.015625 L 18.5 0 L 15.6875 0 L 15.421875 -18.15625 L 11.1875 0 L 9.203125 0 L 5 -18.15625 L 4.71875 0 L 1.890625 0 Z M 2.34375 -25.015625 "/></g></g></g><g fill="#000000" fill-opacity="1"><g transform="translate(123.720829, 224.557836)"><g><path d="M 2.125 -25.015625 L 5.5625 -25.015625 L 5.5625 0 L 2.125 0 Z M 2.125 -25.015625 "/></g></g></g><g fill="#000000" fill-opacity="1"><g transform="translate(132.926706, 224.557836)"><g><path d="M 1.953125 -25.015625 L 4.328125 -25.015625 L 11.421875 -8.40625 L 11.421875 -25.015625 L 14.328125 -25.015625 L 14.328125 0 L 12.109375 0 L 4.90625 -17.078125 L 4.90625 0 L 1.953125 0 Z M 1.953125 -25.015625 "/></g></g></g><g fill="#000000" fill-opacity="1"><g transform="translate(150.781957, 224.557836)"><g><path d="M 5.90625 -25.015625 L 9.265625 -25.015625 L 14.609375 0 L 11.3125 0 L 10.15625 -6.296875 L 5.0625 -6.296875 L 3.859375 0 L 0.59375 0 Z M 9.703125 -8.796875 L 7.59375 -20.078125 L 5.53125 -8.796875 Z M 9.703125 -8.796875 "/></g></g></g><g fill="#000000" fill-opacity="1"><g transform="translate(167.525155, 224.557836)"><g/></g></g><g fill="#000000" fill-opacity="1"><g transform="translate(176.144112, 224.557836)"><g><path d="M 1.953125 -25.015625 L 4.328125 -25.015625 L 11.421875 -8.40625 L 11.421875 -25.015625 L 14.328125 -25.015625 L 14.328125 0 L 12.109375 0 L 4.90625 -17.078125 L 4.90625 0 L 1.953125 0 Z M 1.953125 -25.015625 "/></g></g></g><g fill="#000000" fill-opacity="1"><g transform="translate(193.999366, 224.557836)"><g><path d="M 5.90625 -25.015625 L 9.265625 -25.015625 L 14.609375 0 L 11.3125 0 L 10.15625 -6.296875 L 5.0625 -6.296875 L 3.859375 0 L 0.59375 0 Z M 9.703125 -8.796875 L 7.59375 -20.078125 L 5.53125 -8.796875 Z M 9.703125 -8.796875 "/></g></g></g><g fill="#000000" fill-opacity="1"><g transform="translate(210.742558, 224.557836)"><g><path d="M 7.84375 0.28125 C 5.75 0.28125 4.148438 -0.363281 3.046875 -1.65625 C 1.941406 -2.957031 1.328125 -4.742188 1.203125 -7.015625 L 4.296875 -7.84375 C 4.398438 -6.238281 4.710938 -4.941406 5.234375 -3.953125 C 5.765625 -2.960938 6.632812 -2.46875 7.84375 -2.46875 C 8.75 -2.46875 9.429688 -2.71875 9.890625 -3.21875 C 10.359375 -3.726562 10.59375 -4.457031 10.59375 -5.40625 C 10.59375 -6.4375 10.375 -7.289062 9.9375 -7.96875 C 9.507812 -8.644531 8.820312 -9.394531 7.875 -10.21875 L 3.671875 -13.9375 C 2.828125 -14.675781 2.210938 -15.472656 1.828125 -16.328125 C 1.453125 -17.179688 1.265625 -18.226562 1.265625 -19.46875 C 1.265625 -21.289062 1.789062 -22.707031 2.84375 -23.71875 C 3.894531 -24.726562 5.328125 -25.234375 7.140625 -25.234375 C 9.109375 -25.234375 10.597656 -24.707031 11.609375 -23.65625 C 12.617188 -22.613281 13.226562 -20.988281 13.4375 -18.78125 L 10.46875 -17.984375 C 10.363281 -19.441406 10.078125 -20.566406 9.609375 -21.359375 C 9.148438 -22.148438 8.328125 -22.546875 7.140625 -22.546875 C 6.253906 -22.546875 5.570312 -22.3125 5.09375 -21.84375 C 4.625 -21.382812 4.390625 -20.703125 4.390625 -19.796875 C 4.390625 -19.054688 4.507812 -18.429688 4.75 -17.921875 C 5 -17.421875 5.425781 -16.914062 6.03125 -16.40625 L 10.25 -12.703125 C 11.34375 -11.734375 12.210938 -10.679688 12.859375 -9.546875 C 13.515625 -8.410156 13.84375 -7.125 13.84375 -5.6875 C 13.84375 -3.851562 13.285156 -2.398438 12.171875 -1.328125 C 11.054688 -0.253906 9.613281 0.28125 7.84375 0.28125 Z M 7.84375 0.28125 "/></g></g></g><g fill="#000000" fill-opacity="1"><g transform="translate(226.898833, 224.557836)"><g><path d="M 7.84375 0.28125 C 5.75 0.28125 4.148438 -0.363281 3.046875 -1.65625 C 1.941406 -2.957031 1.328125 -4.742188 1.203125 -7.015625 L 4.296875 -7.84375 C 4.398438 -6.238281 4.710938 -4.941406 5.234375 -3.953125 C 5.765625 -2.960938 6.632812 -2.46875 7.84375 -2.46875 C 8.75 -2.46875 9.429688 -2.71875 9.890625 -3.21875 C 10.359375 -3.726562 10.59375 -4.457031 10.59375 -5.40625 C 10.59375 -6.4375 10.375 -7.289062 9.9375 -7.96875 C 9.507812 -8.644531 8.820312 -9.394531 7.875 -10.21875 L 3.671875 -13.9375 C 2.828125 -14.675781 2.210938 -15.472656 1.828125 -16.328125 C 1.453125 -17.179688 1.265625 -18.226562 1.265625 -19.46875 C 1.265625 -21.289062 1.789062 -22.707031 2.84375 -23.71875 C 3.894531 -24.726562 5.328125 -25.234375 7.140625 -25.234375 C 9.109375 -25.234375 10.597656 -24.707031 11.609375 -23.65625 C 12.617188 -22.613281 13.226562 -20.988281 13.4375 -18.78125 L 10.46875 -17.984375 C 10.363281 -19.441406 10.078125 -20.566406 9.609375 -21.359375 C 9.148438 -22.148438 8.328125 -22.546875 7.140625 -22.546875 C 6.253906 -22.546875 5.570312 -22.3125 5.09375 -21.84375 C 4.625 -21.382812 4.390625 -20.703125 4.390625 -19.796875 C 4.390625 -19.054688 4.507812 -18.429688 4.75 -17.921875 C 5 -17.421875 5.425781 -16.914062 6.03125 -16.40625 L 10.25 -12.703125 C 11.34375 -11.734375 12.210938 -10.679688 12.859375 -9.546875 C 13.515625 -8.410156 13.84375 -7.125 13.84375 -5.6875 C 13.84375 -3.851562 13.285156 -2.398438 12.171875 -1.328125 C 11.054688 -0.253906 9.613281 0.28125 7.84375 0.28125 Z M 7.84375 0.28125 "/></g></g></g><g fill="#000000" fill-opacity="1"><g transform="translate(243.055109, 224.557836)"><g><path d="M 1.953125 -25.015625 L 11.640625 -25.015625 L 11.640625 -22.421875 L 5.4375 -22.421875 L 5.4375 -14.140625 L 10.46875 -14.140625 L 10.46875 -11.671875 L 5.4375 -11.671875 L 5.4375 -2.5 L 11.703125 -2.5 L 11.703125 0 L 1.953125 0 Z M 1.953125 -25.015625 "/></g></g></g><g fill="#000000" fill-opacity="1"><g transform="translate(257.172596, 224.557836)"><g><path d="M 1.953125 -25.015625 L 6.984375 -25.015625 C 9.515625 -25.015625 11.367188 -24.492188 12.546875 -23.453125 C 13.734375 -22.421875 14.328125 -20.726562 14.328125 -18.375 C 14.328125 -15.164062 13.300781 -13.222656 11.25 -12.546875 L 14.796875 0 L 11.421875 0 L 8.15625 -11.734375 L 5.4375 -11.734375 L 5.4375 0 L 1.953125 0 Z M 6.765625 -14.234375 C 8.265625 -14.234375 9.335938 -14.53125 9.984375 -15.125 C 10.640625 -15.726562 10.96875 -16.8125 10.96875 -18.375 C 10.96875 -19.40625 10.851562 -20.210938 10.625 -20.796875 C 10.394531 -21.390625 9.992188 -21.820312 9.421875 -22.09375 C 8.847656 -22.375 8.035156 -22.515625 6.984375 -22.515625 L 5.4375 -22.515625 L 5.4375 -14.234375 Z M 6.765625 -14.234375 "/></g></g></g><g fill="#000000" fill-opacity="1"><g transform="translate(49.979029, 262.588545)"><g><path d="M 6.609375 0 L 0.703125 -21.5625 L 2.703125 -21.5625 L 7.59375 -3.015625 L 7.75 -3.015625 L 12.640625 -21.5625 L 14.921875 -21.5625 L 19.796875 -3.015625 L 19.96875 -3.015625 L 24.84375 -21.5625 L 26.859375 -21.5625 L 20.953125 0 L 18.84375 0 L 13.859375 -18.28125 L 13.71875 -18.28125 L 8.71875 0 Z M 6.609375 0 "/></g></g></g><g fill="#000000" fill-opacity="1"><g transform="translate(77.550942, 262.588545)"><g><path d="M 9.015625 0.34375 C 7.503906 0.34375 6.195312 -0.0078125 5.09375 -0.71875 C 3.988281 -1.425781 3.132812 -2.40625 2.53125 -3.65625 C 1.9375 -4.90625 1.640625 -6.347656 1.640625 -7.984375 C 1.640625 -9.617188 1.9375 -11.066406 2.53125 -12.328125 C 3.132812 -13.597656 3.96875 -14.59375 5.03125 -15.3125 C 6.09375 -16.03125 7.320312 -16.390625 8.71875 -16.390625 C 9.601562 -16.390625 10.453125 -16.226562 11.265625 -15.90625 C 12.078125 -15.59375 12.804688 -15.109375 13.453125 -14.453125 C 14.109375 -13.796875 14.625 -12.96875 15 -11.96875 C 15.375 -10.976562 15.5625 -9.804688 15.5625 -8.453125 L 15.5625 -7.53125 L 2.9375 -7.53125 L 2.9375 -9.171875 L 13.65625 -9.171875 C 13.65625 -10.210938 13.445312 -11.148438 13.03125 -11.984375 C 12.613281 -12.816406 12.03125 -13.472656 11.28125 -13.953125 C 10.539062 -14.441406 9.6875 -14.6875 8.71875 -14.6875 C 7.695312 -14.6875 6.796875 -14.410156 6.015625 -13.859375 C 5.242188 -13.316406 4.632812 -12.59375 4.1875 -11.6875 C 3.75 -10.789062 3.53125 -9.8125 3.53125 -8.75 L 3.53125 -7.75 C 3.53125 -6.46875 3.75 -5.347656 4.1875 -4.390625 C 4.632812 -3.429688 5.269531 -2.6875 6.09375 -2.15625 C 6.914062 -1.632812 7.890625 -1.375 9.015625 -1.375 C 9.773438 -1.375 10.441406 -1.492188 11.015625 -1.734375 C 11.597656 -1.972656 12.085938 -2.296875 12.484375 -2.703125 C 12.878906 -3.109375 13.179688 -3.550781 13.390625 -4.03125 L 15.171875 -3.453125 C 14.921875 -2.773438 14.515625 -2.144531 13.953125 -1.5625 C 13.398438 -0.988281 12.707031 -0.523438 11.875 -0.171875 C 11.039062 0.171875 10.085938 0.34375 9.015625 0.34375 Z M 9.015625 0.34375 "/></g></g></g><g fill="#000000" fill-opacity="1"><g transform="translate(94.763648, 262.588545)"><g><path d="M 2.859375 0 L 2.859375 -21.5625 L 4.75 -21.5625 L 4.75 -13.078125 L 4.921875 -13.078125 C 5.128906 -13.566406 5.429688 -14.066406 5.828125 -14.578125 C 6.222656 -15.085938 6.742188 -15.515625 7.390625 -15.859375 C 8.046875 -16.210938 8.867188 -16.390625 9.859375 -16.390625 C 11.179688 -16.390625 12.34375 -16.039062 13.34375 -15.34375 C 14.351562 -14.644531 15.132812 -13.664062 15.6875 -12.40625 C 16.25 -11.15625 16.53125 -9.703125 16.53125 -8.046875 C 16.53125 -6.367188 16.25 -4.898438 15.6875 -3.640625 C 15.132812 -2.390625 14.359375 -1.410156 13.359375 -0.703125 C 12.359375 -0.00390625 11.203125 0.34375 9.890625 0.34375 C 8.898438 0.34375 8.078125 0.164062 7.421875 -0.1875 C 6.765625 -0.539062 6.234375 -0.972656 5.828125 -1.484375 C 5.429688 -2.003906 5.128906 -2.507812 4.921875 -3 L 4.6875 -3 L 4.6875 0 Z M 4.71875 -8.078125 C 4.71875 -6.765625 4.910156 -5.601562 5.296875 -4.59375 C 5.691406 -3.59375 6.253906 -2.804688 6.984375 -2.234375 C 7.710938 -1.660156 8.601562 -1.375 9.65625 -1.375 C 10.726562 -1.375 11.632812 -1.671875 12.375 -2.265625 C 13.125 -2.859375 13.691406 -3.660156 14.078125 -4.671875 C 14.460938 -5.679688 14.65625 -6.816406 14.65625 -8.078125 C 14.65625 -9.316406 14.460938 -10.429688 14.078125 -11.421875 C 13.691406 -12.421875 13.125 -13.210938 12.375 -13.796875 C 11.632812 -14.390625 10.726562 -14.6875 9.65625 -14.6875 C 8.601562 -14.6875 7.707031 -14.398438 6.96875 -13.828125 C 6.238281 -13.265625 5.679688 -12.488281 5.296875 -11.5 C 4.910156 -10.507812 4.71875 -9.367188 4.71875 -8.078125 Z M 4.71875 -8.078125 "/></g></g></g><g fill="#000000" fill-opacity="1"><g transform="translate(112.944894, 262.588545)"><g/></g></g><g fill="#000000" fill-opacity="1"><g transform="translate(121.282791, 262.588545)"><g><path d="M 9.171875 0 L 2.859375 0 L 2.859375 -21.5625 L 9.5625 -21.5625 C 11.613281 -21.5625 13.367188 -21.128906 14.828125 -20.265625 C 16.296875 -19.410156 17.421875 -18.179688 18.203125 -16.578125 C 18.984375 -14.984375 19.375 -13.066406 19.375 -10.828125 C 19.375 -8.566406 18.972656 -6.628906 18.171875 -5.015625 C 17.378906 -3.398438 16.222656 -2.160156 14.703125 -1.296875 C 13.179688 -0.429688 11.335938 0 9.171875 0 Z M 4.828125 -1.765625 L 9.0625 -1.765625 C 10.914062 -1.765625 12.46875 -2.128906 13.71875 -2.859375 C 14.96875 -3.585938 15.90625 -4.628906 16.53125 -5.984375 C 17.15625 -7.335938 17.46875 -8.953125 17.46875 -10.828125 C 17.457031 -12.691406 17.144531 -14.289062 16.53125 -15.625 C 15.925781 -16.96875 15.03125 -17.992188 13.84375 -18.703125 C 12.65625 -19.421875 11.1875 -19.78125 9.4375 -19.78125 L 4.828125 -19.78125 Z M 4.828125 -1.765625 "/></g></g></g><g fill="#000000" fill-opacity="1"><g transform="translate(142.54865, 262.588545)"><g><path d="M 9.015625 0.34375 C 7.503906 0.34375 6.195312 -0.0078125 5.09375 -0.71875 C 3.988281 -1.425781 3.132812 -2.40625 2.53125 -3.65625 C 1.9375 -4.90625 1.640625 -6.347656 1.640625 -7.984375 C 1.640625 -9.617188 1.9375 -11.066406 2.53125 -12.328125 C 3.132812 -13.597656 3.96875 -14.59375 5.03125 -15.3125 C 6.09375 -16.03125 7.320312 -16.390625 8.71875 -16.390625 C 9.601562 -16.390625 10.453125 -16.226562 11.265625 -15.90625 C 12.078125 -15.59375 12.804688 -15.109375 13.453125 -14.453125 C 14.109375 -13.796875 14.625 -12.96875 15 -11.96875 C 15.375 -10.976562 15.5625 -9.804688 15.5625 -8.453125 L 15.5625 -7.53125 L 2.9375 -7.53125 L 2.9375 -9.171875 L 13.65625 -9.171875 C 13.65625 -10.210938 13.445312 -11.148438 13.03125 -11.984375 C 12.613281 -12.816406 12.03125 -13.472656 11.28125 -13.953125 C 10.539062 -14.441406 9.6875 -14.6875 8.71875 -14.6875 C 7.695312 -14.6875 6.796875 -14.410156 6.015625 -13.859375 C 5.242188 -13.316406 4.632812 -12.59375 4.1875 -11.6875 C 3.75 -10.789062 3.53125 -9.8125 3.53125 -8.75 L 3.53125 -7.75 C 3.53125 -6.46875 3.75 -5.347656 4.1875 -4.390625 C 4.632812 -3.429688 5.269531 -2.6875 6.09375 -2.15625 C 6.914062 -1.632812 7.890625 -1.375 9.015625 -1.375 C 9.773438 -1.375 10.441406 -1.492188 11.015625 -1.734375 C 11.597656 -1.972656 12.085938 -2.296875 12.484375 -2.703125 C 12.878906 -3.109375 13.179688 -3.550781 13.390625 -4.03125 L 15.171875 -3.453125 C 14.921875 -2.773438 14.515625 -2.144531 13.953125 -1.5625 C 13.398438 -0.988281 12.707031 -0.523438 11.875 -0.171875 C 11.039062 0.171875 10.085938 0.34375 9.015625 0.34375 Z M 9.015625 0.34375 "/></g></g></g><g fill="#000000" fill-opacity="1"><g transform="translate(159.761357, 262.588545)"><g><path d="M 14.984375 -16.171875 L 9.078125 0 L 7.078125 0 L 1.171875 -16.171875 L 3.203125 -16.171875 L 8.015625 -2.46875 L 8.15625 -2.46875 L 12.953125 -16.171875 Z M 14.984375 -16.171875 "/></g></g></g><g fill="#000000" fill-opacity="1"><g transform="translate(175.931828, 262.588545)"><g><path d="M 9.015625 0.34375 C 7.503906 0.34375 6.195312 -0.0078125 5.09375 -0.71875 C 3.988281 -1.425781 3.132812 -2.40625 2.53125 -3.65625 C 1.9375 -4.90625 1.640625 -6.347656 1.640625 -7.984375 C 1.640625 -9.617188 1.9375 -11.066406 2.53125 -12.328125 C 3.132812 -13.597656 3.96875 -14.59375 5.03125 -15.3125 C 6.09375 -16.03125 7.320312 -16.390625 8.71875 -16.390625 C 9.601562 -16.390625 10.453125 -16.226562 11.265625 -15.90625 C 12.078125 -15.59375 12.804688 -15.109375 13.453125 -14.453125 C 14.109375 -13.796875 14.625 -12.96875 15 -11.96875 C 15.375 -10.976562 15.5625 -9.804688 15.5625 -8.453125 L 15.5625 -7.53125 L 2.9375 -7.53125 L 2.9375 -9.171875 L 13.65625 -9.171875 C 13.65625 -10.210938 13.445312 -11.148438 13.03125 -11.984375 C 12.613281 -12.816406 12.03125 -13.472656 11.28125 -13.953125 C 10.539062 -14.441406 9.6875 -14.6875 8.71875 -14.6875 C 7.695312 -14.6875 6.796875 -14.410156 6.015625 -13.859375 C 5.242188 -13.316406 4.632812 -12.59375 4.1875 -11.6875 C 3.75 -10.789062 3.53125 -9.8125 3.53125 -8.75 L 3.53125 -7.75 C 3.53125 -6.46875 3.75 -5.347656 4.1875 -4.390625 C 4.632812 -3.429688 5.269531 -2.6875 6.09375 -2.15625 C 6.914062 -1.632812 7.890625 -1.375 9.015625 -1.375 C 9.773438 -1.375 10.441406 -1.492188 11.015625 -1.734375 C 11.597656 -1.972656 12.085938 -2.296875 12.484375 -2.703125 C 12.878906 -3.109375 13.179688 -3.550781 13.390625 -4.03125 L 15.171875 -3.453125 C 14.921875 -2.773438 14.515625 -2.144531 13.953125 -1.5625 C 13.398438 -0.988281 12.707031 -0.523438 11.875 -0.171875 C 11.039062 0.171875 10.085938 0.34375 9.015625 0.34375 Z M 9.015625 0.34375 "/></g></g></g><g fill="#000000" fill-opacity="1"><g transform="translate(193.144534, 262.588545)"><g><path d="M 4.34375 -21.5625 L 4.34375 0 L 2.46875 0 L 2.46875 -21.5625 Z M 4.34375 -21.5625 "/></g></g></g><g fill="#000000" fill-opacity="1"><g transform="translate(199.966446, 262.588545)"><g><path d="M 8.75 0.34375 C 7.351562 0.34375 6.117188 -0.0078125 5.046875 -0.71875 C 3.984375 -1.4375 3.148438 -2.421875 2.546875 -3.671875 C 1.941406 -4.921875 1.640625 -6.367188 1.640625 -8.015625 C 1.640625 -9.671875 1.941406 -11.125 2.546875 -12.375 C 3.148438 -13.632812 3.984375 -14.617188 5.046875 -15.328125 C 6.117188 -16.035156 7.351562 -16.390625 8.75 -16.390625 C 10.15625 -16.390625 11.390625 -16.035156 12.453125 -15.328125 C 13.515625 -14.617188 14.347656 -13.632812 14.953125 -12.375 C 15.566406 -11.125 15.875 -9.671875 15.875 -8.015625 C 15.875 -6.367188 15.570312 -4.921875 14.96875 -3.671875 C 14.363281 -2.421875 13.523438 -1.4375 12.453125 -0.71875 C 11.390625 -0.0078125 10.15625 0.34375 8.75 0.34375 Z M 8.75 -1.375 C 9.875 -1.375 10.828125 -1.675781 11.609375 -2.28125 C 12.390625 -2.882812 12.976562 -3.6875 13.375 -4.6875 C 13.78125 -5.695312 13.984375 -6.804688 13.984375 -8.015625 C 13.984375 -9.222656 13.78125 -10.332031 13.375 -11.34375 C 12.976562 -12.351562 12.390625 -13.160156 11.609375 -13.765625 C 10.828125 -14.378906 9.875 -14.6875 8.75 -14.6875 C 7.632812 -14.6875 6.6875 -14.378906 5.90625 -13.765625 C 5.125 -13.160156 4.53125 -12.351562 4.125 -11.34375 C 3.726562 -10.332031 3.53125 -9.222656 3.53125 -8.015625 C 3.53125 -6.804688 3.726562 -5.695312 4.125 -4.6875 C 4.53125 -3.6875 5.125 -2.882812 5.90625 -2.28125 C 6.6875 -1.675781 7.632812 -1.375 8.75 -1.375 Z M 8.75 -1.375 "/></g></g></g><g fill="#000000" fill-opacity="1"><g transform="translate(217.484457, 262.588545)"><g><path d="M 2.46875 6.0625 L 2.46875 -16.171875 L 4.296875 -16.171875 L 4.296875 -13.078125 L 4.515625 -13.078125 C 4.742188 -13.566406 5.050781 -14.066406 5.4375 -14.578125 C 5.832031 -15.085938 6.351562 -15.515625 7 -15.859375 C 7.65625 -16.210938 8.476562 -16.390625 9.46875 -16.390625 C 10.800781 -16.390625 11.96875 -16.039062 12.96875 -15.34375 C 13.96875 -14.644531 14.742188 -13.664062 15.296875 -12.40625 C 15.859375 -11.15625 16.140625 -9.703125 16.140625 -8.046875 C 16.140625 -6.367188 15.859375 -4.898438 15.296875 -3.640625 C 14.742188 -2.390625 13.96875 -1.410156 12.96875 -0.703125 C 11.96875 -0.00390625 10.804688 0.34375 9.484375 0.34375 C 8.503906 0.34375 7.6875 0.164062 7.03125 -0.1875 C 6.375 -0.539062 5.84375 -0.972656 5.4375 -1.484375 C 5.039062 -2.003906 4.734375 -2.507812 4.515625 -3 L 4.34375 -3 L 4.34375 6.0625 Z M 4.328125 -8.078125 C 4.328125 -6.765625 4.519531 -5.601562 4.90625 -4.59375 C 5.300781 -3.59375 5.863281 -2.804688 6.59375 -2.234375 C 7.320312 -1.660156 8.210938 -1.375 9.265625 -1.375 C 10.335938 -1.375 11.242188 -1.671875 11.984375 -2.265625 C 12.722656 -2.859375 13.285156 -3.660156 13.671875 -4.671875 C 14.066406 -5.679688 14.265625 -6.816406 14.265625 -8.078125 C 14.265625 -9.316406 14.070312 -10.429688 13.6875 -11.421875 C 13.300781 -12.421875 12.738281 -13.210938 12 -13.796875 C 11.257812 -14.390625 10.347656 -14.6875 9.265625 -14.6875 C 8.210938 -14.6875 7.316406 -14.398438 6.578125 -13.828125 C 5.835938 -13.265625 5.273438 -12.488281 4.890625 -11.5 C 4.515625 -10.507812 4.328125 -9.367188 4.328125 -8.078125 Z M 4.328125 -8.078125 "/></g></g></g><g fill="#000000" fill-opacity="1"><g transform="translate(235.265664, 262.588545)"><g><path d="M 9.015625 0.34375 C 7.503906 0.34375 6.195312 -0.0078125 5.09375 -0.71875 C 3.988281 -1.425781 3.132812 -2.40625 2.53125 -3.65625 C 1.9375 -4.90625 1.640625 -6.347656 1.640625 -7.984375 C 1.640625 -9.617188 1.9375 -11.066406 2.53125 -12.328125 C 3.132812 -13.597656 3.96875 -14.59375 5.03125 -15.3125 C 6.09375 -16.03125 7.320312 -16.390625 8.71875 -16.390625 C 9.601562 -16.390625 10.453125 -16.226562 11.265625 -15.90625 C 12.078125 -15.59375 12.804688 -15.109375 13.453125 -14.453125 C 14.109375 -13.796875 14.625 -12.96875 15 -11.96875 C 15.375 -10.976562 15.5625 -9.804688 15.5625 -8.453125 L 15.5625 -7.53125 L 2.9375 -7.53125 L 2.9375 -9.171875 L 13.65625 -9.171875 C 13.65625 -10.210938 13.445312 -11.148438 13.03125 -11.984375 C 12.613281 -12.816406 12.03125 -13.472656 11.28125 -13.953125 C 10.539062 -14.441406 9.6875 -14.6875 8.71875 -14.6875 C 7.695312 -14.6875 6.796875 -14.410156 6.015625 -13.859375 C 5.242188 -13.316406 4.632812 -12.59375 4.1875 -11.6875 C 3.75 -10.789062 3.53125 -9.8125 3.53125 -8.75 L 3.53125 -7.75 C 3.53125 -6.46875 3.75 -5.347656 4.1875 -4.390625 C 4.632812 -3.429688 5.269531 -2.6875 6.09375 -2.15625 C 6.914062 -1.632812 7.890625 -1.375 9.015625 -1.375 C 9.773438 -1.375 10.441406 -1.492188 11.015625 -1.734375 C 11.597656 -1.972656 12.085938 -2.296875 12.484375 -2.703125 C 12.878906 -3.109375 13.179688 -3.550781 13.390625 -4.03125 L 15.171875 -3.453125 C 14.921875 -2.773438 14.515625 -2.144531 13.953125 -1.5625 C 13.398438 -0.988281 12.707031 -0.523438 11.875 -0.171875 C 11.039062 0.171875 10.085938 0.34375 9.015625 0.34375 Z M 9.015625 0.34375 "/></g></g></g><g fill="#000000" fill-opacity="1"><g transform="translate(252.478371, 262.588545)"><g><path d="M 2.46875 0 L 2.46875 -16.171875 L 4.296875 -16.171875 L 4.296875 -13.6875 L 4.4375 -13.6875 C 4.757812 -14.5 5.320312 -15.15625 6.125 -15.65625 C 6.925781 -16.15625 7.835938 -16.40625 8.859375 -16.40625 C 9.003906 -16.40625 9.171875 -16.398438 9.359375 -16.390625 C 9.554688 -16.390625 9.71875 -16.382812 9.84375 -16.375 L 9.84375 -14.46875 C 9.757812 -14.488281 9.609375 -14.507812 9.390625 -14.53125 C 9.179688 -14.5625 8.957031 -14.578125 8.71875 -14.578125 C 7.875 -14.578125 7.125 -14.398438 6.46875 -14.046875 C 5.8125 -13.691406 5.289062 -13.203125 4.90625 -12.578125 C 4.53125 -11.953125 4.34375 -11.238281 4.34375 -10.4375 L 4.34375 0 Z M 2.46875 0 "/></g></g></g><g fill="#000000" fill-opacity="1"><g transform="translate(263.048131, 262.588545)"><g/></g></g><g fill="#000000" fill-opacity="1"><g transform="translate(271.386028, 262.588545)"><g><path d="M 8.234375 0.296875 C 6.910156 0.296875 5.753906 0.0390625 4.765625 -0.46875 C 3.773438 -0.988281 3.003906 -1.691406 2.453125 -2.578125 C 1.910156 -3.472656 1.640625 -4.484375 1.640625 -5.609375 C 1.640625 -6.421875 1.804688 -7.15625 2.140625 -7.8125 C 2.472656 -8.46875 2.953125 -9.09375 3.578125 -9.6875 C 4.210938 -10.28125 4.984375 -10.894531 5.890625 -11.53125 L 9.015625 -13.859375 C 9.753906 -14.390625 10.316406 -14.910156 10.703125 -15.421875 C 11.097656 -15.941406 11.296875 -16.578125 11.296875 -17.328125 C 11.296875 -18.054688 11.019531 -18.707031 10.46875 -19.28125 C 9.925781 -19.851562 9.226562 -20.140625 8.375 -20.140625 C 7.769531 -20.140625 7.226562 -19.988281 6.75 -19.6875 C 6.28125 -19.382812 5.90625 -18.988281 5.625 -18.5 C 5.34375 -18.019531 5.203125 -17.519531 5.203125 -17 C 5.203125 -16.507812 5.328125 -16.015625 5.578125 -15.515625 C 5.835938 -15.023438 6.179688 -14.503906 6.609375 -13.953125 C 7.035156 -13.410156 7.515625 -12.816406 8.046875 -12.171875 L 17.890625 0 L 15.625 0 L 7.03125 -10.53125 C 6.3125 -11.414062 5.671875 -12.207031 5.109375 -12.90625 C 4.546875 -13.601562 4.101562 -14.273438 3.78125 -14.921875 C 3.457031 -15.578125 3.296875 -16.273438 3.296875 -17.015625 C 3.296875 -17.941406 3.507812 -18.765625 3.9375 -19.484375 C 4.363281 -20.203125 4.953125 -20.765625 5.703125 -21.171875 C 6.460938 -21.585938 7.332031 -21.796875 8.3125 -21.796875 C 9.300781 -21.796875 10.160156 -21.59375 10.890625 -21.1875 C 11.628906 -20.78125 12.195312 -20.238281 12.59375 -19.5625 C 13 -18.894531 13.203125 -18.148438 13.203125 -17.328125 C 13.203125 -16.359375 12.953125 -15.5 12.453125 -14.75 C 11.953125 -14 11.222656 -13.257812 10.265625 -12.53125 L 6.359375 -9.609375 C 5.285156 -8.804688 4.546875 -8.0625 4.140625 -7.375 C 3.742188 -6.6875 3.546875 -6.097656 3.546875 -5.609375 C 3.546875 -4.847656 3.738281 -4.148438 4.125 -3.515625 C 4.519531 -2.878906 5.066406 -2.367188 5.765625 -1.984375 C 6.472656 -1.597656 7.273438 -1.398438 8.171875 -1.390625 C 9.078125 -1.398438 9.925781 -1.582031 10.71875 -1.9375 C 11.507812 -2.289062 12.21875 -2.796875 12.84375 -3.453125 C 13.46875 -4.109375 13.972656 -4.894531 14.359375 -5.8125 C 14.742188 -6.738281 14.96875 -7.765625 15.03125 -8.890625 L 16.859375 -8.875 C 16.828125 -7.71875 16.664062 -6.734375 16.375 -5.921875 C 16.09375 -5.117188 15.769531 -4.457031 15.40625 -3.9375 C 15.039062 -3.425781 14.722656 -3.007812 14.453125 -2.6875 C 14.378906 -2.582031 14.300781 -2.476562 14.21875 -2.375 C 14.144531 -2.269531 14.066406 -2.164062 13.984375 -2.0625 C 13.273438 -1.289062 12.398438 -0.703125 11.359375 -0.296875 C 10.316406 0.0976562 9.273438 0.296875 8.234375 0.296875 Z M 8.234375 0.296875 "/></g></g></g><g fill="#000000" fill-opacity="1"><g transform="translate(289.788363, 262.588545)"><g/></g></g><g fill="#000000" fill-opacity="1"><g transform="translate(298.12626, 262.588545)"><g><path d="M 2.859375 0 L 2.859375 -21.5625 L 10.140625 -21.5625 C 11.535156 -21.5625 12.703125 -21.3125 13.640625 -20.8125 C 14.578125 -20.320312 15.28125 -19.648438 15.75 -18.796875 C 16.226562 -17.953125 16.46875 -16.992188 16.46875 -15.921875 C 16.46875 -15.015625 16.316406 -14.242188 16.015625 -13.609375 C 15.710938 -12.972656 15.300781 -12.457031 14.78125 -12.0625 C 14.257812 -11.664062 13.679688 -11.378906 13.046875 -11.203125 L 13.046875 -11.046875 C 13.734375 -10.992188 14.40625 -10.75 15.0625 -10.3125 C 15.71875 -9.875 16.253906 -9.257812 16.671875 -8.46875 C 17.085938 -7.6875 17.296875 -6.75 17.296875 -5.65625 C 17.296875 -4.5625 17.054688 -3.585938 16.578125 -2.734375 C 16.097656 -1.890625 15.359375 -1.222656 14.359375 -0.734375 C 13.359375 -0.242188 12.082031 0 10.53125 0 Z M 4.828125 -1.765625 L 10.53125 -1.765625 C 12.195312 -1.765625 13.425781 -2.132812 14.21875 -2.875 C 15.019531 -3.613281 15.421875 -4.539062 15.421875 -5.65625 C 15.421875 -6.476562 15.222656 -7.222656 14.828125 -7.890625 C 14.429688 -8.554688 13.875 -9.085938 13.15625 -9.484375 C 12.4375 -9.878906 11.59375 -10.078125 10.625 -10.078125 L 4.828125 -10.078125 Z M 4.828125 -11.828125 L 10.3125 -11.828125 C 11.164062 -11.828125 11.910156 -12 12.546875 -12.34375 C 13.179688 -12.695312 13.675781 -13.179688 14.03125 -13.796875 C 14.394531 -14.410156 14.578125 -15.117188 14.578125 -15.921875 C 14.578125 -17.054688 14.203125 -17.984375 13.453125 -18.703125 C 12.710938 -19.421875 11.609375 -19.78125 10.140625 -19.78125 L 4.828125 -19.78125 Z M 4.828125 -11.828125 "/></g></g></g><g fill="#000000" fill-opacity="1"><g transform="translate(317.318168, 262.588545)"><g><path d="M 4.828125 -21.5625 L 4.828125 0 L 2.859375 0 L 2.859375 -21.5625 Z M 4.828125 -21.5625 "/></g></g></g></svg>