<svg xmlns="http://www.w3.org/2000/svg" xmlns:xlink="http://www.w3.org/1999/xlink" width="500" zoomAndPan="magnify" viewBox="0 0 375 374.999991" height="500" preserveAspectRatio="xMidYMid meet" version="1.0"><defs><g/><clipPath id="ff1cf6b8a2"><path d="M 145 114 L 231 114 L 231 235.472656 L 145 235.472656 Z M 145 114 " clip-rule="nonzero"/></clipPath><clipPath id="afecf70605"><path d="M 186 85.472656 L 190 85.472656 L 190 103 L 186 103 Z M 186 85.472656 " clip-rule="nonzero"/></clipPath><clipPath id="f5c1a316b7"><path d="M 122.4375 146 L 139 146 L 139 150 L 122.4375 150 Z M 122.4375 146 " clip-rule="nonzero"/></clipPath><clipPath id="feb73d96a7"><path d="M 236 146 L 252.9375 146 L 252.9375 150 L 236 150 Z M 236 146 " clip-rule="nonzero"/></clipPath></defs><rect x="-37.5" width="450" fill="#ffffff" y="-37.499999" height="449.999989" fill-opacity="1"/><rect x="-37.5" width="450" fill="#ffffff" y="-37.499999" height="449.999989" fill-opacity="1"/><path fill="#070707" d="M 175.894531 164.808594 C 173.816406 165.0625 170.25 166.59375 169.257812 170.511719 C 168.011719 169.867188 166.570312 169.421875 164.953125 169.203125 C 164.152344 169.097656 163.410156 169.65625 163.300781 170.457031 C 163.191406 171.257812 163.757812 171.996094 164.558594 172.105469 C 167.070312 172.445312 171.320312 173.796875 171.570312 179.042969 C 171.609375 179.828125 172.257812 180.4375 173.035156 180.4375 C 173.058594 180.4375 173.082031 180.4375 173.105469 180.433594 C 173.917969 180.394531 174.542969 179.710938 174.503906 178.902344 C 174.382812 176.339844 173.480469 174.171875 171.9375 172.523438 C 172.058594 168.410156 175.804688 167.777344 176.257812 167.714844 C 177.058594 167.613281 177.628906 166.886719 177.53125 166.085938 C 177.433594 165.285156 176.703125 164.714844 175.894531 164.808594 Z M 175.894531 164.808594 " fill-opacity="1" fill-rule="nonzero"/><path fill="#070707" d="M 176.214844 140.113281 C 176.53125 139.371094 176.179688 138.511719 175.433594 138.195312 C 174.4375 137.773438 173.382812 137.5625 172.292969 137.5625 C 169.625 137.5625 167.257812 138.855469 165.789062 140.847656 C 164.335938 138.691406 161.871094 137.269531 159.078125 137.269531 C 158.269531 137.269531 157.609375 137.925781 157.609375 138.734375 C 157.609375 139.542969 158.269531 140.195312 159.078125 140.195312 C 161.910156 140.195312 164.214844 142.496094 164.214844 145.320312 C 164.214844 145.355469 164.21875 145.386719 164.222656 145.417969 C 164.21875 145.484375 164.214844 145.546875 164.214844 145.613281 C 164.214844 147.835938 165.152344 149.980469 166.78125 151.5 C 167.066406 151.761719 167.425781 151.894531 167.78125 151.894531 C 168.175781 151.894531 168.566406 151.738281 168.855469 151.429688 C 169.410156 150.839844 169.378906 149.910156 168.785156 149.359375 C 167.734375 148.378906 167.152344 147.050781 167.152344 145.613281 C 167.152344 142.789062 169.457031 140.492188 172.292969 140.492188 C 172.984375 140.492188 173.660156 140.625 174.289062 140.890625 C 175.039062 141.207031 175.898438 140.859375 176.214844 140.113281 Z M 176.214844 140.113281 " fill-opacity="1" fill-rule="nonzero"/><g clip-path="url(#ff1cf6b8a2)"><path fill="#070707" d="M 228.398438 140.453125 C 228.398438 132.789062 222.832031 126.40625 215.523438 125.089844 C 214.898438 118.898438 209.644531 114.046875 203.273438 114.046875 C 197.132812 114.046875 192.027344 118.550781 191.109375 124.421875 C 191.015625 124.613281 190.960938 124.832031 190.960938 125.058594 L 190.960938 126.292969 C 190.960938 126.304688 190.960938 126.3125 190.960938 126.324219 C 190.960938 126.328125 190.960938 126.335938 190.960938 126.339844 L 190.960938 206.375 C 190.960938 208.167969 189.5 209.621094 187.703125 209.621094 C 185.90625 209.621094 184.445312 208.167969 184.445312 206.375 L 184.445312 126.332031 C 184.445312 126.328125 184.445312 126.328125 184.445312 126.324219 C 184.445312 126.320312 184.445312 126.316406 184.445312 126.308594 L 184.445312 125.058594 C 184.445312 124.828125 184.390625 124.613281 184.296875 124.421875 C 183.375 118.550781 178.273438 114.046875 172.132812 114.046875 C 165.761719 114.046875 160.503906 118.898438 159.882812 125.089844 C 152.574219 126.40625 147.007812 132.789062 147.007812 140.453125 C 147.007812 142.964844 147.613281 145.429688 148.765625 147.644531 C 146.589844 150.75 145.394531 154.46875 145.394531 158.351562 C 145.394531 165.902344 149.992188 172.738281 156.925781 175.636719 C 157.628906 179.339844 159.714844 182.703125 162.804688 184.96875 C 164.195312 186.171875 165.414062 187.042969 166.492188 187.816406 C 170.90625 190.96875 172.554688 192.148438 172.554688 209.613281 C 172.554688 209.664062 172.558594 209.714844 172.566406 209.765625 C 172.566406 209.773438 172.566406 209.777344 172.566406 209.78125 C 172.578125 209.867188 172.59375 209.953125 172.621094 210.03125 C 172.625 210.042969 172.625 210.054688 172.628906 210.066406 C 172.65625 210.152344 172.691406 210.230469 172.734375 210.308594 C 172.738281 210.316406 172.738281 210.320312 172.742188 210.328125 L 186.421875 234.722656 C 186.457031 234.785156 186.496094 234.84375 186.539062 234.898438 C 186.546875 234.910156 186.554688 234.917969 186.566406 234.929688 C 186.613281 234.988281 186.664062 235.042969 186.71875 235.089844 C 186.734375 235.105469 186.75 235.121094 186.765625 235.132812 C 186.832031 235.1875 186.90625 235.242188 186.980469 235.28125 C 186.984375 235.285156 186.984375 235.285156 186.984375 235.285156 C 187.011719 235.300781 187.035156 235.308594 187.0625 235.324219 C 187.089844 235.335938 187.121094 235.351562 187.148438 235.363281 C 187.191406 235.378906 187.230469 235.394531 187.273438 235.40625 C 187.289062 235.410156 187.308594 235.417969 187.328125 235.421875 C 187.382812 235.4375 187.4375 235.449219 187.492188 235.457031 C 187.496094 235.457031 187.503906 235.460938 187.511719 235.460938 C 187.574219 235.46875 187.636719 235.472656 187.699219 235.472656 C 187.699219 235.472656 187.703125 235.472656 187.703125 235.472656 C 187.765625 235.472656 187.828125 235.46875 187.890625 235.460938 C 187.898438 235.460938 187.90625 235.457031 187.914062 235.457031 C 187.96875 235.449219 188.023438 235.4375 188.078125 235.421875 C 188.09375 235.417969 188.109375 235.410156 188.128906 235.40625 C 188.171875 235.394531 188.210938 235.378906 188.253906 235.363281 C 188.28125 235.351562 188.308594 235.335938 188.335938 235.324219 C 188.363281 235.3125 188.390625 235.300781 188.417969 235.285156 C 188.417969 235.285156 188.421875 235.285156 188.421875 235.28125 C 188.5 235.238281 188.570312 235.1875 188.636719 235.132812 C 188.65625 235.121094 188.671875 235.105469 188.6875 235.089844 C 188.742188 235.042969 188.792969 234.988281 188.839844 234.929688 C 188.847656 234.921875 188.859375 234.910156 188.867188 234.898438 C 188.910156 234.84375 188.949219 234.785156 188.984375 234.722656 L 202.660156 210.328125 C 202.664062 210.320312 202.667969 210.316406 202.671875 210.308594 C 202.710938 210.230469 202.746094 210.152344 202.777344 210.066406 C 202.777344 210.054688 202.78125 210.042969 202.785156 210.03125 C 202.808594 209.953125 202.828125 209.867188 202.839844 209.78125 C 202.839844 209.777344 202.839844 209.773438 202.839844 209.769531 C 202.84375 209.71875 202.847656 209.664062 202.847656 209.613281 C 202.847656 192.148438 204.5 190.96875 208.910156 187.816406 C 209.988281 187.042969 211.210938 186.171875 212.597656 184.96875 C 215.6875 182.703125 217.777344 179.339844 218.480469 175.636719 C 225.410156 172.738281 230.007812 165.902344 230.007812 158.351562 C 230.007812 154.46875 228.816406 150.75 226.640625 147.644531 C 227.792969 145.429688 228.398438 142.964844 228.398438 140.453125 Z M 168.203125 185.433594 C 167.160156 184.691406 165.980469 183.847656 164.671875 182.707031 C 164.652344 182.691406 164.628906 182.679688 164.609375 182.664062 C 164.597656 182.652344 164.585938 182.640625 164.574219 182.632812 C 161.457031 180.359375 159.59375 176.703125 159.59375 172.859375 C 159.59375 166.1875 165.039062 160.757812 171.730469 160.757812 C 172.539062 160.757812 173.199219 160.101562 173.199219 159.292969 C 173.199219 158.484375 172.539062 157.832031 171.730469 157.832031 C 168.453125 157.832031 165.417969 158.882812 162.945312 160.660156 C 161.933594 156.710938 158.4375 154.632812 156.359375 154.03125 C 155.585938 153.804688 154.773438 154.25 154.546875 155.023438 C 154.316406 155.792969 154.761719 156.609375 155.535156 156.839844 C 155.738281 156.902344 160.371094 158.347656 160.289062 163.09375 C 158.148438 165.585938 156.808594 168.777344 156.671875 172.277344 C 151.605469 169.546875 148.332031 164.203125 148.332031 158.351562 C 148.332031 154.804688 149.511719 151.414062 151.648438 148.671875 C 151.667969 148.648438 151.691406 148.625 151.707031 148.597656 C 152.40625 147.710938 153.207031 146.886719 154.101562 146.152344 C 154.726562 145.636719 154.816406 144.714844 154.296875 144.09375 C 153.78125 143.46875 152.859375 143.378906 152.230469 143.894531 C 151.75 144.292969 151.289062 144.714844 150.855469 145.152344 C 150.257812 143.667969 149.945312 142.074219 149.945312 140.453125 C 149.945312 133.457031 155.652344 127.765625 162.667969 127.765625 C 166.601562 127.765625 170.25 129.535156 172.679688 132.625 C 173.183594 133.261719 174.105469 133.371094 174.742188 132.871094 C 175.378906 132.371094 175.492188 131.453125 174.992188 130.816406 C 173.867188 129.386719 172.527344 128.1875 171.042969 127.246094 C 171.578125 126.304688 172.542969 125.039062 174.007812 124.726562 C 174.800781 124.558594 175.304688 123.78125 175.136719 122.988281 C 174.964844 122.199219 174.183594 121.695312 173.394531 121.867188 C 170.785156 122.421875 169.21875 124.480469 168.421875 125.925781 C 166.679688 125.242188 164.808594 124.867188 162.875 124.84375 C 163.589844 120.390625 167.46875 116.976562 172.132812 116.976562 C 177.296875 116.976562 181.5 121.160156 181.507812 126.308594 L 181.511719 208.894531 C 180.5 209.578125 178.132812 210.722656 175.492188 208.890625 C 175.441406 191.503906 173.546875 189.253906 168.203125 185.433594 Z M 191.777344 223.742188 L 183.628906 223.742188 L 177.460938 212.742188 C 177.785156 212.785156 178.109375 212.804688 178.425781 212.804688 C 180.59375 212.804688 182.464844 211.886719 183.601562 211 C 184.695312 211.964844 186.132812 212.550781 187.703125 212.550781 C 189.273438 212.550781 190.707031 211.960938 191.800781 211 C 192.9375 211.886719 194.8125 212.804688 196.980469 212.804688 C 197.296875 212.804688 197.617188 212.785156 197.945312 212.742188 Z M 227.074219 158.351562 C 227.074219 164.203125 223.796875 169.546875 218.730469 172.273438 C 218.597656 168.777344 217.257812 165.585938 215.117188 163.09375 C 215.03125 158.355469 219.65625 156.90625 219.871094 156.839844 C 220.644531 156.613281 221.089844 155.800781 220.863281 155.027344 C 220.636719 154.25 219.820312 153.804688 219.046875 154.03125 C 216.964844 154.632812 213.472656 156.710938 212.460938 160.660156 C 209.984375 158.882812 206.953125 157.828125 203.675781 157.828125 C 202.863281 157.828125 202.207031 158.484375 202.207031 159.292969 C 202.207031 160.101562 202.863281 160.757812 203.675781 160.757812 C 210.367188 160.757812 215.808594 166.183594 215.808594 172.859375 C 215.808594 176.703125 213.949219 180.359375 210.832031 182.632812 C 210.820312 182.640625 210.808594 182.652344 210.796875 182.664062 C 210.777344 182.679688 210.753906 182.691406 210.734375 182.707031 C 209.425781 183.847656 208.242188 184.691406 207.203125 185.433594 C 201.859375 189.253906 199.964844 191.503906 199.914062 208.890625 C 197.269531 210.722656 194.902344 209.574219 193.894531 208.894531 L 193.898438 126.292969 C 193.914062 121.152344 198.113281 116.972656 203.273438 116.972656 C 207.9375 116.972656 211.816406 120.390625 212.53125 124.84375 C 210.597656 124.867188 208.726562 125.242188 206.984375 125.925781 C 206.183594 124.480469 204.621094 122.421875 202.011719 121.863281 C 201.21875 121.695312 200.4375 122.199219 200.269531 122.988281 C 200.097656 123.78125 200.605469 124.558594 201.394531 124.726562 C 202.859375 125.039062 203.828125 126.304688 204.363281 127.246094 C 202.875 128.1875 201.539062 129.386719 200.414062 130.816406 C 199.914062 131.449219 200.023438 132.371094 200.660156 132.871094 C 201.300781 133.371094 202.222656 133.257812 202.722656 132.621094 C 203.890625 131.140625 205.34375 129.964844 206.96875 129.136719 C 206.980469 129.132812 206.988281 129.128906 207 129.125 C 208.75 128.242188 210.707031 127.765625 212.738281 127.765625 C 219.753906 127.765625 225.460938 133.457031 225.460938 140.453125 C 225.460938 142.070312 225.144531 143.664062 224.550781 145.152344 C 224.113281 144.714844 223.65625 144.292969 223.171875 143.894531 C 222.546875 143.378906 221.621094 143.46875 221.105469 144.089844 C 220.589844 144.714844 220.679688 145.636719 221.304688 146.152344 C 222.199219 146.886719 222.996094 147.707031 223.695312 148.597656 C 223.714844 148.625 223.738281 148.644531 223.757812 148.671875 C 225.894531 151.414062 227.074219 154.804688 227.074219 158.351562 Z M 227.074219 158.351562 " fill-opacity="1" fill-rule="nonzero"/></g><path fill="#070707" d="M 197.878906 166.078125 C 197.777344 166.875 198.34375 167.609375 199.144531 167.714844 C 199.589844 167.773438 203.347656 168.40625 203.46875 172.523438 C 201.921875 174.167969 201.023438 176.339844 200.902344 178.902344 C 200.863281 179.710938 201.488281 180.394531 202.296875 180.433594 C 202.320312 180.4375 202.34375 180.4375 202.367188 180.4375 C 203.148438 180.4375 203.796875 179.828125 203.835938 179.042969 C 204.082031 173.796875 208.335938 172.445312 210.847656 172.105469 C 211.648438 171.996094 212.210938 171.257812 212.101562 170.457031 C 211.996094 169.65625 211.25 169.097656 210.453125 169.203125 C 208.835938 169.421875 207.390625 169.867188 206.144531 170.511719 C 205.15625 166.59375 201.585938 165.0625 199.511719 164.808594 C 198.707031 164.714844 197.984375 165.277344 197.878906 166.078125 Z M 197.878906 166.078125 " fill-opacity="1" fill-rule="nonzero"/><path fill="#070707" d="M 216.324219 137.269531 C 213.53125 137.269531 211.066406 138.691406 209.617188 140.847656 C 208.144531 138.855469 205.777344 137.5625 203.113281 137.5625 C 202.023438 137.5625 200.964844 137.773438 199.96875 138.195312 C 199.222656 138.511719 198.875 139.371094 199.191406 140.113281 C 199.507812 140.859375 200.367188 141.207031 201.113281 140.890625 C 201.746094 140.625 202.417969 140.488281 203.113281 140.488281 C 205.945312 140.488281 208.25 142.789062 208.25 145.613281 C 208.25 147.046875 207.671875 148.378906 206.617188 149.359375 C 206.027344 149.910156 205.996094 150.835938 206.546875 151.429688 C 206.835938 151.738281 207.230469 151.894531 207.621094 151.894531 C 207.980469 151.894531 208.339844 151.761719 208.621094 151.5 C 210.253906 149.980469 211.1875 147.835938 211.1875 145.613281 C 211.1875 145.546875 211.183594 145.484375 211.183594 145.417969 C 211.183594 145.386719 211.1875 145.351562 211.1875 145.320312 C 211.1875 142.496094 213.492188 140.195312 216.324219 140.195312 C 217.136719 140.195312 217.792969 139.539062 217.792969 138.734375 C 217.792969 137.925781 217.136719 137.269531 216.324219 137.269531 Z M 216.324219 137.269531 " fill-opacity="1" fill-rule="nonzero"/><g clip-path="url(#afecf70605)"><path fill="#070707" d="M 187.703125 102.40625 C 188.511719 102.40625 189.171875 101.75 189.171875 100.941406 L 189.171875 86.9375 C 189.171875 86.128906 188.511719 85.472656 187.703125 85.472656 C 186.890625 85.472656 186.234375 86.128906 186.234375 86.9375 L 186.234375 100.941406 C 186.234375 101.75 186.890625 102.40625 187.703125 102.40625 Z M 187.703125 102.40625 " fill-opacity="1" fill-rule="nonzero"/></g><path fill="#070707" d="M 163.039062 108.015625 C 163.3125 108.480469 163.804688 108.738281 164.308594 108.738281 C 164.558594 108.738281 164.816406 108.671875 165.046875 108.535156 C 165.75 108.128906 165.984375 107.230469 165.574219 106.535156 L 159.058594 95.449219 C 158.648438 94.75 157.746094 94.519531 157.050781 94.925781 C 156.347656 95.335938 156.113281 96.230469 156.523438 96.929688 Z M 163.039062 108.015625 " fill-opacity="1" fill-rule="nonzero"/><path fill="#070707" d="M 143.828125 120.898438 L 132.59375 114.621094 C 131.886719 114.226562 130.992188 114.480469 130.59375 115.183594 C 130.199219 115.890625 130.453125 116.78125 131.160156 117.175781 L 142.394531 123.453125 C 142.621094 123.578125 142.867188 123.640625 143.109375 123.640625 C 143.625 123.640625 144.125 123.371094 144.394531 122.890625 C 144.789062 122.183594 144.535156 121.292969 143.828125 120.898438 Z M 143.828125 120.898438 " fill-opacity="1" fill-rule="nonzero"/><g clip-path="url(#f5c1a316b7)"><path fill="#070707" d="M 138.523438 148.035156 C 138.507812 147.238281 137.855469 146.601562 137.058594 146.601562 C 137.046875 146.601562 137.039062 146.601562 137.027344 146.601562 L 123.925781 146.855469 C 123.117188 146.871094 122.472656 147.539062 122.488281 148.347656 C 122.503906 149.148438 123.15625 149.785156 123.953125 149.785156 C 123.964844 149.785156 123.972656 149.785156 123.984375 149.785156 L 137.085938 149.527344 C 137.894531 149.511719 138.539062 148.84375 138.523438 148.035156 Z M 138.523438 148.035156 " fill-opacity="1" fill-rule="nonzero"/></g><path fill="#070707" d="M 140.578125 174.144531 L 129.476562 180.925781 C 128.785156 181.347656 128.570312 182.25 128.992188 182.9375 C 129.269531 183.390625 129.753906 183.636719 130.246094 183.636719 C 130.507812 183.636719 130.773438 183.566406 131.011719 183.421875 L 142.113281 176.644531 C 142.804688 176.21875 143.019531 175.320312 142.597656 174.628906 C 142.175781 173.941406 141.269531 173.722656 140.578125 174.144531 Z M 140.578125 174.144531 " fill-opacity="1" fill-rule="nonzero"/><path fill="#070707" d="M 210.355469 108.535156 C 210.589844 108.671875 210.84375 108.738281 211.097656 108.738281 C 211.601562 108.738281 212.089844 108.480469 212.363281 108.015625 L 218.878906 96.929688 C 219.289062 96.230469 219.054688 95.335938 218.355469 94.925781 C 217.65625 94.515625 216.757812 94.75 216.347656 95.449219 L 209.832031 106.535156 C 209.421875 107.230469 209.65625 108.128906 210.355469 108.535156 Z M 210.355469 108.535156 " fill-opacity="1" fill-rule="nonzero"/><path fill="#070707" d="M 244.246094 117.175781 C 244.953125 116.78125 245.207031 115.890625 244.808594 115.183594 C 244.414062 114.480469 243.519531 114.226562 242.8125 114.621094 L 231.574219 120.898438 C 230.867188 121.292969 230.617188 122.183594 231.011719 122.890625 C 231.28125 123.371094 231.78125 123.640625 232.292969 123.640625 C 232.535156 123.640625 232.78125 123.578125 233.011719 123.453125 Z M 244.246094 117.175781 " fill-opacity="1" fill-rule="nonzero"/><g clip-path="url(#feb73d96a7)"><path fill="#070707" d="M 251.476562 146.855469 L 238.375 146.601562 C 238.367188 146.601562 238.355469 146.601562 238.347656 146.601562 C 237.550781 146.601562 236.894531 147.238281 236.878906 148.035156 C 236.863281 148.84375 237.507812 149.511719 238.320312 149.527344 L 251.421875 149.78125 C 251.429688 149.785156 251.441406 149.785156 251.449219 149.785156 C 252.246094 149.785156 252.902344 149.148438 252.917969 148.347656 C 252.933594 147.539062 252.289062 146.871094 251.476562 146.855469 Z M 251.476562 146.855469 " fill-opacity="1" fill-rule="nonzero"/></g><path fill="#070707" d="M 245.925781 180.925781 L 234.824219 174.144531 C 234.136719 173.722656 233.230469 173.941406 232.808594 174.628906 C 232.382812 175.320312 232.601562 176.21875 233.292969 176.640625 L 244.394531 183.421875 C 244.632812 183.566406 244.894531 183.636719 245.15625 183.636719 C 245.652344 183.636719 246.132812 183.390625 246.410156 182.9375 C 246.835938 182.25 246.617188 181.347656 245.925781 180.925781 Z M 245.925781 180.925781 " fill-opacity="1" fill-rule="nonzero"/><g fill="#000000" fill-opacity="1"><g transform="translate(136.389024, 291.062873)"><g><path d="M 4.296875 0 L 2.78125 0 L 0.53125 -9.84375 L 1.671875 -9.84375 L 3.53125 -1.703125 L 3.6875 -1.703125 L 5.90625 -9.84375 L 6.96875 -9.84375 L 9.171875 -1.703125 L 9.34375 -1.703125 L 11.203125 -9.84375 L 12.3125 -9.84375 L 10.0625 0 L 8.546875 0 L 6.5 -7.453125 L 6.359375 -7.453125 Z M 4.296875 0 "/></g></g></g><g fill="#000000" fill-opacity="1"><g transform="translate(149.23663, 291.062873)"><g><path d="M 7.078125 -3.453125 L 1.96875 -3.453125 C 2 -2.554688 2.210938 -1.894531 2.609375 -1.46875 C 3.015625 -1.050781 3.566406 -0.84375 4.265625 -0.84375 C 4.796875 -0.84375 5.222656 -0.9375 5.546875 -1.125 C 5.867188 -1.3125 6.125 -1.609375 6.3125 -2.015625 L 6.453125 -2.015625 L 7.171875 -1.59375 C 6.953125 -1.050781 6.601562 -0.625 6.125 -0.3125 C 5.65625 -0.0078125 5.035156 0.140625 4.265625 0.140625 C 3.554688 0.140625 2.941406 0 2.421875 -0.28125 C 1.910156 -0.5625 1.515625 -0.988281 1.234375 -1.5625 C 0.953125 -2.132812 0.8125 -2.847656 0.8125 -3.703125 C 0.8125 -4.546875 0.957031 -5.253906 1.25 -5.828125 C 1.550781 -6.410156 1.953125 -6.84375 2.453125 -7.125 C 2.960938 -7.414062 3.546875 -7.5625 4.203125 -7.5625 C 5.148438 -7.5625 5.890625 -7.289062 6.421875 -6.75 C 6.960938 -6.21875 7.234375 -5.425781 7.234375 -4.375 C 7.234375 -3.957031 7.226562 -3.679688 7.21875 -3.546875 Z M 6.15625 -4.375 C 6.132812 -5.164062 5.957031 -5.738281 5.625 -6.09375 C 5.300781 -6.457031 4.828125 -6.640625 4.203125 -6.640625 C 3.554688 -6.640625 3.046875 -6.457031 2.671875 -6.09375 C 2.304688 -5.726562 2.082031 -5.15625 2 -4.375 Z M 6.15625 -4.375 "/></g></g></g><g fill="#000000" fill-opacity="1"><g transform="translate(157.151129, 291.062873)"><g><path d="M 4.9375 0.140625 C 4.382812 0.140625 3.90625 0.0351562 3.5 -0.171875 C 3.09375 -0.390625 2.769531 -0.671875 2.53125 -1.015625 L 2.390625 -1 L 2.390625 0 L 1.296875 0 L 1.296875 -10.40625 L 2.390625 -10.40625 L 2.390625 -6.3125 L 2.53125 -6.28125 C 3.09375 -7.132812 3.914062 -7.5625 5 -7.5625 C 5.601562 -7.5625 6.132812 -7.421875 6.59375 -7.140625 C 7.050781 -6.859375 7.40625 -6.425781 7.65625 -5.84375 C 7.914062 -5.269531 8.046875 -4.554688 8.046875 -3.703125 C 8.046875 -2.859375 7.910156 -2.148438 7.640625 -1.578125 C 7.367188 -1.003906 7 -0.570312 6.53125 -0.28125 C 6.070312 0 5.539062 0.140625 4.9375 0.140625 Z M 4.671875 -0.84375 C 6.148438 -0.84375 6.890625 -1.796875 6.890625 -3.703125 C 6.890625 -4.691406 6.695312 -5.414062 6.3125 -5.875 C 5.925781 -6.34375 5.378906 -6.578125 4.671875 -6.578125 C 3.972656 -6.578125 3.414062 -6.335938 3 -5.859375 C 2.59375 -5.390625 2.390625 -4.671875 2.390625 -3.703125 C 2.390625 -2.742188 2.59375 -2.023438 3 -1.546875 C 3.414062 -1.078125 3.972656 -0.84375 4.671875 -0.84375 Z M 4.671875 -0.84375 "/></g></g></g><g fill="#000000" fill-opacity="1"><g transform="translate(166.00783, 291.062873)"><g/></g></g><g fill="#000000" fill-opacity="1"><g transform="translate(169.386299, 291.062873)"><g><path d="M 4.671875 -9.84375 C 5.660156 -9.84375 6.515625 -9.660156 7.234375 -9.296875 C 7.953125 -8.941406 8.503906 -8.398438 8.890625 -7.671875 C 9.273438 -6.941406 9.46875 -6.023438 9.46875 -4.921875 C 9.46875 -3.816406 9.273438 -2.894531 8.890625 -2.15625 C 8.503906 -1.425781 7.953125 -0.882812 7.234375 -0.53125 C 6.515625 -0.175781 5.660156 0 4.671875 0 L 1.484375 0 L 1.484375 -9.84375 Z M 4.5625 -0.984375 C 5.375 -0.984375 6.050781 -1.109375 6.59375 -1.359375 C 7.132812 -1.617188 7.539062 -2.035156 7.8125 -2.609375 C 8.09375 -3.191406 8.234375 -3.960938 8.234375 -4.921875 C 8.234375 -5.878906 8.09375 -6.644531 7.8125 -7.21875 C 7.539062 -7.800781 7.132812 -8.21875 6.59375 -8.46875 C 6.050781 -8.726562 5.375 -8.859375 4.5625 -8.859375 L 2.640625 -8.859375 L 2.640625 -0.984375 Z M 4.5625 -0.984375 "/></g></g></g><g fill="#000000" fill-opacity="1"><g transform="translate(179.844744, 291.062873)"><g><path d="M 7.078125 -3.453125 L 1.96875 -3.453125 C 2 -2.554688 2.210938 -1.894531 2.609375 -1.46875 C 3.015625 -1.050781 3.566406 -0.84375 4.265625 -0.84375 C 4.796875 -0.84375 5.222656 -0.9375 5.546875 -1.125 C 5.867188 -1.3125 6.125 -1.609375 6.3125 -2.015625 L 6.453125 -2.015625 L 7.171875 -1.59375 C 6.953125 -1.050781 6.601562 -0.625 6.125 -0.3125 C 5.65625 -0.0078125 5.035156 0.140625 4.265625 0.140625 C 3.554688 0.140625 2.941406 0 2.421875 -0.28125 C 1.910156 -0.5625 1.515625 -0.988281 1.234375 -1.5625 C 0.953125 -2.132812 0.8125 -2.847656 0.8125 -3.703125 C 0.8125 -4.546875 0.957031 -5.253906 1.25 -5.828125 C 1.550781 -6.410156 1.953125 -6.84375 2.453125 -7.125 C 2.960938 -7.414062 3.546875 -7.5625 4.203125 -7.5625 C 5.148438 -7.5625 5.890625 -7.289062 6.421875 -6.75 C 6.960938 -6.21875 7.234375 -5.425781 7.234375 -4.375 C 7.234375 -3.957031 7.226562 -3.679688 7.21875 -3.546875 Z M 6.15625 -4.375 C 6.132812 -5.164062 5.957031 -5.738281 5.625 -6.09375 C 5.300781 -6.457031 4.828125 -6.640625 4.203125 -6.640625 C 3.554688 -6.640625 3.046875 -6.457031 2.671875 -6.09375 C 2.304688 -5.726562 2.082031 -5.15625 2 -4.375 Z M 6.15625 -4.375 "/></g></g></g><g fill="#000000" fill-opacity="1"><g transform="translate(187.759243, 291.062873)"><g><path d="M 4.703125 0 L 3.1875 0 L 0.359375 -7.421875 L 1.546875 -7.421875 L 3.875 -1.25 L 4.03125 -1.25 L 6.359375 -7.421875 L 7.515625 -7.421875 Z M 4.703125 0 "/></g></g></g><g fill="#000000" fill-opacity="1"><g transform="translate(195.626637, 291.062873)"><g><path d="M 7.078125 -3.453125 L 1.96875 -3.453125 C 2 -2.554688 2.210938 -1.894531 2.609375 -1.46875 C 3.015625 -1.050781 3.566406 -0.84375 4.265625 -0.84375 C 4.796875 -0.84375 5.222656 -0.9375 5.546875 -1.125 C 5.867188 -1.3125 6.125 -1.609375 6.3125 -2.015625 L 6.453125 -2.015625 L 7.171875 -1.59375 C 6.953125 -1.050781 6.601562 -0.625 6.125 -0.3125 C 5.65625 -0.0078125 5.035156 0.140625 4.265625 0.140625 C 3.554688 0.140625 2.941406 0 2.421875 -0.28125 C 1.910156 -0.5625 1.515625 -0.988281 1.234375 -1.5625 C 0.953125 -2.132812 0.8125 -2.847656 0.8125 -3.703125 C 0.8125 -4.546875 0.957031 -5.253906 1.25 -5.828125 C 1.550781 -6.410156 1.953125 -6.84375 2.453125 -7.125 C 2.960938 -7.414062 3.546875 -7.5625 4.203125 -7.5625 C 5.148438 -7.5625 5.890625 -7.289062 6.421875 -6.75 C 6.960938 -6.21875 7.234375 -5.425781 7.234375 -4.375 C 7.234375 -3.957031 7.226562 -3.679688 7.21875 -3.546875 Z M 6.15625 -4.375 C 6.132812 -5.164062 5.957031 -5.738281 5.625 -6.09375 C 5.300781 -6.457031 4.828125 -6.640625 4.203125 -6.640625 C 3.554688 -6.640625 3.046875 -6.457031 2.671875 -6.09375 C 2.304688 -5.726562 2.082031 -5.15625 2 -4.375 Z M 6.15625 -4.375 "/></g></g></g><g fill="#000000" fill-opacity="1"><g transform="translate(203.541136, 291.062873)"><g><path d="M 2.953125 0.140625 C 2.429688 0.140625 2.019531 -0.00390625 1.71875 -0.296875 C 1.414062 -0.597656 1.265625 -1.046875 1.265625 -1.640625 L 1.265625 -10.40625 L 2.359375 -10.40625 L 2.359375 -1.71875 C 2.359375 -1.40625 2.414062 -1.179688 2.53125 -1.046875 C 2.65625 -0.910156 2.84375 -0.84375 3.09375 -0.84375 C 3.25 -0.84375 3.40625 -0.867188 3.5625 -0.921875 L 3.65625 -0.890625 L 3.78125 -0.03125 C 3.695312 0.0195312 3.578125 0.0625 3.421875 0.09375 C 3.273438 0.125 3.117188 0.140625 2.953125 0.140625 Z M 2.953125 0.140625 "/></g></g></g><g fill="#000000" fill-opacity="1"><g transform="translate(207.579146, 291.062873)"><g><path d="M 4.265625 0.140625 C 3.554688 0.140625 2.941406 -0.00390625 2.421875 -0.296875 C 1.910156 -0.597656 1.515625 -1.035156 1.234375 -1.609375 C 0.953125 -2.179688 0.8125 -2.878906 0.8125 -3.703125 C 0.8125 -4.523438 0.953125 -5.222656 1.234375 -5.796875 C 1.515625 -6.378906 1.910156 -6.816406 2.421875 -7.109375 C 2.941406 -7.410156 3.554688 -7.5625 4.265625 -7.5625 C 4.960938 -7.5625 5.566406 -7.410156 6.078125 -7.109375 C 6.597656 -6.816406 7 -6.378906 7.28125 -5.796875 C 7.5625 -5.222656 7.703125 -4.523438 7.703125 -3.703125 C 7.703125 -2.878906 7.5625 -2.179688 7.28125 -1.609375 C 7 -1.035156 6.597656 -0.597656 6.078125 -0.296875 C 5.566406 -0.00390625 4.960938 0.140625 4.265625 0.140625 Z M 4.265625 -0.84375 C 5.003906 -0.84375 5.566406 -1.070312 5.953125 -1.53125 C 6.347656 -2 6.546875 -2.722656 6.546875 -3.703125 C 6.546875 -4.691406 6.347656 -5.414062 5.953125 -5.875 C 5.566406 -6.34375 5.003906 -6.578125 4.265625 -6.578125 C 3.523438 -6.578125 2.957031 -6.34375 2.5625 -5.875 C 2.164062 -5.40625 1.96875 -4.679688 1.96875 -3.703125 C 1.96875 -2.722656 2.164062 -2 2.5625 -1.53125 C 2.957031 -1.070312 3.523438 -0.84375 4.265625 -0.84375 Z M 4.265625 -0.84375 "/></g></g></g><g fill="#000000" fill-opacity="1"><g transform="translate(216.099347, 291.062873)"><g><path d="M 1.296875 3.015625 L 1.296875 -7.421875 L 2.390625 -7.421875 L 2.390625 -6.3125 L 2.53125 -6.28125 C 3.082031 -7.132812 3.890625 -7.5625 4.953125 -7.5625 C 5.578125 -7.5625 6.117188 -7.421875 6.578125 -7.140625 C 7.046875 -6.859375 7.40625 -6.425781 7.65625 -5.84375 C 7.914062 -5.269531 8.046875 -4.554688 8.046875 -3.703125 C 8.046875 -2.859375 7.910156 -2.148438 7.640625 -1.578125 C 7.367188 -1.003906 6.992188 -0.570312 6.515625 -0.28125 C 6.046875 0 5.5 0.140625 4.875 0.140625 C 4.375 0.140625 3.925781 0.0507812 3.53125 -0.125 C 3.144531 -0.300781 2.8125 -0.585938 2.53125 -0.984375 L 2.390625 -0.953125 L 2.390625 3.015625 Z M 4.640625 -0.84375 C 6.140625 -0.84375 6.890625 -1.796875 6.890625 -3.703125 C 6.890625 -5.617188 6.140625 -6.578125 4.640625 -6.578125 C 4.203125 -6.578125 3.8125 -6.472656 3.46875 -6.265625 C 3.132812 -6.066406 2.867188 -5.753906 2.671875 -5.328125 C 2.484375 -4.898438 2.390625 -4.359375 2.390625 -3.703125 C 2.390625 -3.054688 2.484375 -2.519531 2.671875 -2.09375 C 2.867188 -1.664062 3.132812 -1.347656 3.46875 -1.140625 C 3.8125 -0.941406 4.203125 -0.84375 4.640625 -0.84375 Z M 4.640625 -0.84375 "/></g></g></g><g fill="#000000" fill-opacity="1"><g transform="translate(224.956048, 291.062873)"><g><path d="M 7.078125 -3.453125 L 1.96875 -3.453125 C 2 -2.554688 2.210938 -1.894531 2.609375 -1.46875 C 3.015625 -1.050781 3.566406 -0.84375 4.265625 -0.84375 C 4.796875 -0.84375 5.222656 -0.9375 5.546875 -1.125 C 5.867188 -1.3125 6.125 -1.609375 6.3125 -2.015625 L 6.453125 -2.015625 L 7.171875 -1.59375 C 6.953125 -1.050781 6.601562 -0.625 6.125 -0.3125 C 5.65625 -0.0078125 5.035156 0.140625 4.265625 0.140625 C 3.554688 0.140625 2.941406 0 2.421875 -0.28125 C 1.910156 -0.5625 1.515625 -0.988281 1.234375 -1.5625 C 0.953125 -2.132812 0.8125 -2.847656 0.8125 -3.703125 C 0.8125 -4.546875 0.957031 -5.253906 1.25 -5.828125 C 1.550781 -6.410156 1.953125 -6.84375 2.453125 -7.125 C 2.960938 -7.414062 3.546875 -7.5625 4.203125 -7.5625 C 5.148438 -7.5625 5.890625 -7.289062 6.421875 -6.75 C 6.960938 -6.21875 7.234375 -5.425781 7.234375 -4.375 C 7.234375 -3.957031 7.226562 -3.679688 7.21875 -3.546875 Z M 6.15625 -4.375 C 6.132812 -5.164062 5.957031 -5.738281 5.625 -6.09375 C 5.300781 -6.457031 4.828125 -6.640625 4.203125 -6.640625 C 3.554688 -6.640625 3.046875 -6.457031 2.671875 -6.09375 C 2.304688 -5.726562 2.082031 -5.15625 2 -4.375 Z M 6.15625 -4.375 "/></g></g></g><g fill="#000000" fill-opacity="1"><g transform="translate(232.870548, 291.062873)"><g><path d="M 1.296875 0 L 1.296875 -7.421875 L 2.328125 -7.421875 L 2.328125 -6.265625 L 2.46875 -6.21875 C 2.820312 -7.0625 3.472656 -7.484375 4.421875 -7.484375 C 4.929688 -7.484375 5.3125 -7.394531 5.5625 -7.21875 L 5.28125 -6.28125 L 5.140625 -6.265625 C 4.867188 -6.398438 4.566406 -6.46875 4.234375 -6.46875 C 3.640625 -6.46875 3.179688 -6.242188 2.859375 -5.796875 C 2.546875 -5.359375 2.390625 -4.640625 2.390625 -3.640625 L 2.390625 0 Z M 1.296875 0 "/></g></g></g><g fill="#000000" fill-opacity="1"><g transform="translate(151.754309, 268.436415)"><g><path d="M 7.96875 0 L 4.625 0 L 4.625 -30.625 L 9.96875 -30.625 L 19.25 -4.6875 L 19.6875 -4.6875 L 28.96875 -30.625 L 34.125 -30.625 L 34.125 0 L 30.71875 0 L 30.71875 -25 L 30.1875 -25.078125 L 21.140625 0 L 17.5625 0 L 8.484375 -25.078125 L 7.96875 -25 Z M 7.96875 0 "/></g></g></g><g fill="#000000" fill-opacity="1"><g transform="translate(190.523538, 268.436415)"><g><path d="M 8.15625 0 L 4.625 0 L 4.625 -30.625 L 9.046875 -30.625 L 23.984375 -7.234375 L 24.515625 -7.3125 L 24.515625 -30.625 L 28.015625 -30.625 L 28.015625 0 L 24.234375 0 L 8.671875 -25.03125 L 8.15625 -24.953125 Z M 8.15625 0 "/></g></g></g></svg>